<?xml version="1.0" encoding="UTF-8"?><svg xmlns="http://www.w3.org/2000/svg" width="100%" height="100%"><defs><font id="web" horiz-adv-x="967"><!--



NOTICE: This font software is the valuable property 
of Webtype LLC, The Font Bureau, Webtype and/or its 
suppliers and its use by you is covered under the terms 
of the Web Font license agreement between you and Webtype 
LLC. You may ONLY use this font software with the licensed 
web site. Except as specifically permitted by the license, 
you may not copy this font software. If you have any 
questions, please contact Webtype.com. 

For more information, please visit http://www.webtype.com/store/license/?id=23

Licensed to: http://thedailybeast.com

Serial number: SH-518
--><font-face font-family="" units-per-em="2048" panose-1="2 0 5 6 4 0 0 2 0 4" ascent="2044" descent="-432" alphabetic="0"/><missing-glyph horiz-adv-x="324"/><glyph unicode=" " horiz-adv-x="324"/><glyph unicode="!" horiz-adv-x="508" d="M465 1632L420 508H86L41 1632H465ZM444 0H63V436H444V0Z"/><glyph unicode="&quot;" horiz-adv-x="846" d="M825 1634L811 952H465L449 1634H825ZM383 1634L367 952H33L18 1634H383Z"/><glyph unicode="#" horiz-adv-x="913" d="M903 1155L872 874H733Q732 872 729 848T723 795L715 719H866L834 438H686L641 -25H420L465 438H367L319 -25H98L145 438H8L41 719H172Q177 762 181 795Q184 824 187 848T190 874H45L78 1155H219Q219 1156 221 1177T227 1231T234 1307T243 1394Q253 1497 266 1628H489L440 1155H541Q541 1156 543 1177T549 1231T556 1307T564 1394L586 1628H807L785 1394Q781 1350 777 1308T770 1233T765 1178T762 1155H903ZM512 874H412L395 719H494L502 795Q505 824 508 848T512 874Z"/><glyph unicode="$" horiz-adv-x="1004" d="M606 1636Q697 1622 762 1588T869 1506T935 1398T967 1272Q969 1253 971 1229T974 1182T976 1141T977 1114H588Q589 1122 589 1140T588 1177T586 1211T584 1231Q581 1262 561 1281T498 1300Q459 1300 434 1282T408 1221Q408 1185 419 1155T461 1093T545 1023T682 932Q766 878 823 827T917 717T969 589T985 432Q985 343 961 269T890 140T772 48T606 0V-113H401V0Q222 19 124 102T18 328Q18 334 18 358T17 409T16 461T16 492H403Q404 487 404 470T406 434T407 399T410 379Q413 348 437 332T502 315Q545 315 564 338T584 406Q584 449 574 480T534 542T451 610T311 705Q224 762 167 814T77 923T30 1051T16 1214Q16 1296 40 1368T112 1496T233 1590T401 1638V1679H606V1636Z"/><glyph unicode="%" horiz-adv-x="1473" d="M719 1155Q719 1082 697 1022T632 918T525 850T375 825Q292 825 230 849T127 917T66 1021T45 1155V1329Q45 1393 65 1452T127 1558T232 1633T383 1661Q475 1661 539 1631T643 1554T701 1447T719 1329V1155ZM1229 1618L414 0H229L1044 1618H1229ZM1423 311Q1423 239 1403 179T1340 74T1234 5T1081 -20Q998 -20 936 5T833 74T771 179T750 311V483Q750 546 770 605T831 711T936 786T1087 815Q1178 815 1242 785T1346 708T1405 601T1423 483V311ZM449 1176V1311Q449 1324 445 1337T432 1360T412 1377T383 1384Q346 1384 331 1362T315 1311V1176Q315 1138 330 1115T383 1092Q420 1092 434 1116T449 1176ZM1155 332V465Q1155 493 1140 517T1087 541Q1049 541 1035 517T1020 465V332Q1020 298 1034 272T1087 246Q1108 246 1121 253T1141 271T1152 298T1155 332Z"/><glyph unicode="&amp;" horiz-adv-x="1266" d="M662 750Q691 708 724 659T795 559Q809 602 817 652T825 760H1169Q1167 596 1134 475T1044 266Q1097 203 1154 137T1272 0H844Q834 15 822 30T799 61Q726 18 647 3T498 -12Q404 -12 319 6T167 63T61 162T16 305Q15 320 15 341T14 383T14 425T16 459Q17 517 36 567T85 661T156 745T240 821Q183 927 151 1016T119 1178Q119 1199 118 1237T119 1309Q122 1368 146 1427T220 1534T344 1612T524 1642Q612 1642 680 1615T794 1542T866 1436T895 1309V1204Q893 1132 872 1069T819 949T746 844T662 750ZM496 1028Q530 1070 550 1113T573 1202V1249Q571 1275 559 1291T522 1307Q493 1307 479 1289T463 1239V1163Q465 1132 472 1099T496 1028ZM432 537Q409 509 395 476T381 408Q381 379 388 360T411 328T450 310T504 303Q521 303 542 307T578 324Q559 349 540 377T501 433T465 487T432 537Z"/><glyph unicode="'" horiz-adv-x="436" d="M406 1634L389 897H45L31 1634H406Z"/><glyph unicode="(" horiz-adv-x="610" d="M602 -143H190Q160 -73 131 25T80 239T43 486T29 748Q29 880 45 1011T85 1259T137 1473T190 1634H602Q578 1564 551 1463T500 1242T461 995T446 743Q446 621 459 496T493 253T543 34T602 -143Z"/><glyph unicode=")" horiz-adv-x="610" d="M582 748Q582 616 569 487T533 241T482 26T422 -143H8Q39 -68 68 34T118 253T153 495T166 743Q166 866 151 994T112 1242T61 1462T8 1634H422Q447 1570 475 1473T527 1259T566 1011T582 748Z"/><glyph unicode="*" horiz-adv-x="977" d="M598 1399L825 1489L899 1262L659 1182L819 983L633 842L485 1044L340 842L154 983L311 1180L74 1262L147 1489L379 1399L373 1657H604L598 1399Z"/><glyph unicode="+" horiz-adv-x="842" d="M817 641H584V375H260V641H25V961H260V1225H586V961H817V641Z"/><glyph unicode="," horiz-adv-x="492" d="M442 -8L219 -258L37 -162L131 -6L125 0H47V453H442V-8Z"/><glyph unicode="-" horiz-adv-x="698" d="M678 598H20V989H678V598Z"/><glyph unicode="." horiz-adv-x="492" d="M444 0H47V453H444V0Z"/><glyph unicode="/" horiz-adv-x="465" d="M467 1636L186 -332H-41L240 1636H467Z"/><glyph unicode="0" horiz-adv-x="1022" d="M512 1653Q622 1653 703 1625T840 1548T928 1439T973 1311Q981 1266 986 1211T994 1092T998 959T999 819Q999 774 997 711T991 582T980 454T967 346Q954 265 921 198T833 83T698 9T512 -18Q404 -18 325 8T190 83T103 198T57 346Q50 388 45 450T35 578T29 709T27 819Q27 891 28 961T31 1095T38 1213T51 1309Q63 1376 91 1438T171 1548T307 1624T512 1653ZM588 821Q588 874 588 931T587 1041T587 1135T586 1200Q584 1256 567 1279T512 1303Q472 1303 455 1277T436 1198Q436 1182 436 1154T435 1091T434 1017T433 941T433 871T432 815Q432 747 432 684T434 569T436 476T438 414Q441 360 458 337T512 313Q549 313 566 336T586 414Q586 428 586 456T587 520T588 597T588 679T588 757T588 821Z"/><glyph unicode="1" horiz-adv-x="700" d="M645 0H248V1133L16 1128V1456Q107 1458 165 1481T258 1534T308 1593T330 1636H645V0Z"/><glyph unicode="2" horiz-adv-x="1010" d="M979 0H31V338Q50 374 82 414T155 498T241 591T330 691T414 797T486 908T537 1023T557 1141V1219Q555 1271 538 1289T492 1307Q466 1307 448 1288T428 1229V1049H31Q31 1061 31 1095T31 1169T31 1244T33 1292Q35 1357 66 1421T158 1537T309 1621T520 1653Q644 1653 730 1626T870 1551T951 1439T983 1300Q984 1290 984 1264T984 1208T983 1149T981 1108Q974 1027 944 950T869 802T773 665T672 543T582 441T520 362H979V0Z"/><glyph unicode="3" horiz-adv-x="1006" d="M664 870Q734 867 790 845T888 787T953 703T983 600Q985 576 986 544T987 477T986 405T983 338Q978 260 945 195T851 82T702 8T498 -18Q278 -18 159 66T27 303Q24 346 22 389T18 466T17 524T16 551H414Q414 549 414 525T414 470T415 408T418 362Q421 330 437 316T485 301Q523 301 540 321T559 387Q560 402 560 422T560 466T560 511T559 551Q557 584 549 604T525 636T483 652T420 657Q415 657 388 657T328 658Q291 658 246 659V999H440Q497 1001 521 1022T549 1092Q550 1106 551 1128T552 1173T552 1215T551 1245Q548 1280 533 1294T485 1309Q458 1309 442 1291T426 1239Q426 1224 426 1200T425 1151T425 1109T424 1090H49Q49 1092 49 1108T50 1147T52 1198T54 1252T56 1301T59 1335Q67 1396 98 1453T184 1554T318 1626T502 1653Q612 1653 694 1627T831 1555T914 1447T946 1313Q947 1301 947 1286T947 1252T947 1216T946 1182Q944 1128 927 1076T876 980T789 908T664 870Z"/><glyph unicode="4" horiz-adv-x="1049" d="M1040 285H907V0H524V287H10V645L487 1636H907V627H1040V285ZM524 627V977L358 627H524Z"/><glyph unicode="5" horiz-adv-x="1004" d="M983 322Q979 261 953 201T872 92T727 13T508 -18Q390 -18 302 5T153 73T61 180T25 324Q24 337 24 360T24 410T24 464T23 514H418Q418 509 418 490T420 447T421 404T422 377Q427 335 443 317T489 299Q524 299 539 318T557 379Q558 400 558 444T559 540T559 639T557 713Q555 750 538 767T492 784Q453 784 438 752T422 666H41V1634H934V1270H406V1032Q416 1058 439 1078T495 1113T568 1135T653 1143Q728 1143 786 1123T887 1066T952 978T981 864Q983 840 984 800T987 710T988 605T988 498T986 400T983 322Z"/><glyph unicode="6" horiz-adv-x="1001" d="M948 236Q928 182 896 136T813 55T692 2T526 -18Q358 -18 252 40T92 217Q78 247 68 293T51 393T39 507T32 623T28 730T27 819Q27 876 29 942T35 1073T46 1198T61 1303Q74 1376 107 1440T196 1551T331 1626T516 1653Q624 1653 700 1628T828 1560T908 1458T948 1333Q951 1314 953 1283T956 1220T957 1159T958 1116H582Q582 1125 582 1139T582 1166T582 1191T580 1208Q575 1261 559 1283T508 1305Q473 1305 454 1280T432 1192Q430 1160 430 1126T429 1062T429 1008T430 975Q468 1007 528 1022T655 1038Q777 1038 853 987T956 846Q965 818 971 769T979 662T981 539T977 417T966 311T948 236ZM580 379Q581 411 581 450T582 528T582 597T580 645Q578 674 560 693T508 713Q477 713 456 696T428 649Q428 608 428 567T430 490T433 427T436 385Q441 343 461 325T512 307Q541 307 559 326T580 379Z"/><glyph unicode="7" horiz-adv-x="877" d="M870 1313L522 0H90L449 1270H6V1634H870V1313Z"/><glyph unicode="8" horiz-adv-x="1036" d="M1012 344Q1006 261 973 194T878 80T726 8T516 -18Q381 -18 290 9T142 84T58 198T23 344Q20 365 20 404T20 489T23 579T29 657Q33 703 53 741T104 808T173 858T250 887Q214 894 180 913T120 962T77 1031T59 1116Q58 1126 57 1157T56 1225T55 1293T55 1337Q60 1397 84 1454T160 1556T299 1628T516 1655Q643 1655 730 1627T871 1553T950 1452T977 1339Q978 1328 978 1298T979 1234T979 1171T977 1133Q975 1088 960 1049T918 977T856 922T776 887Q824 878 865 855T938 799T988 724T1012 637Q1015 605 1016 563T1017 480T1015 402T1012 344ZM582 1081Q583 1090 583 1117T584 1175T584 1232T582 1268Q577 1299 560 1312T514 1325Q489 1325 472 1311T449 1268Q447 1259 446 1233T445 1177T446 1120T449 1081Q454 1049 472 1038T516 1026Q542 1026 559 1037T582 1081ZM596 377Q598 400 599 436T600 509T599 580T596 631Q591 669 569 684T516 700Q484 700 462 684T434 629Q432 612 432 578T431 505T431 432T434 379Q439 344 460 328T516 311Q548 311 570 327T596 377Z"/><glyph unicode="9" horiz-adv-x="1004" d="M942 317Q926 243 892 181T803 75T671 5T489 -20Q303 -20 195 61T61 301Q58 320 56 348T52 404T50 458T49 498H426Q426 489 426 475T426 445T426 413T428 385Q431 343 449 326T500 309Q534 309 553 331T573 395Q574 423 574 461T575 535T575 601T575 641Q535 607 482 594T362 580Q247 580 167 626T55 770Q45 800 39 849T30 958T29 1082T34 1207T45 1317T63 1397Q82 1453 119 1500T212 1581T340 1635T502 1655Q657 1655 760 1601T909 1438Q922 1405 932 1358T951 1257T964 1143T973 1027T977 919T979 829Q979 769 977 699T971 559T959 426T942 317ZM580 934Q580 988 580 1057T578 1217Q573 1307 500 1307Q471 1307 451 1289T428 1235Q427 1225 427 1203T426 1151T425 1091T425 1030T426 979T428 946Q434 883 502 883Q533 883 552 900T580 934Z"/><glyph unicode=":" horiz-adv-x="475" d="M422 725H55V1155H422V725ZM422 0H55V428H422V0Z"/><glyph unicode=";" horiz-adv-x="475" d="M424 725H63V1155H424V725ZM424 -2L207 -264L43 -143L131 -6L123 0H63V428H424V-2Z"/><glyph unicode="&lt;" horiz-adv-x="776" d="M731 596V266L23 553V938L731 1225V893L319 745L731 596Z"/><glyph unicode="=" horiz-adv-x="825" d="M803 829H27V1133H803V829ZM803 444H27V745H803V444Z"/><glyph unicode="&gt;" horiz-adv-x="776" d="M39 266V596L446 745L39 893V1225L745 938V553L39 266Z"/><glyph unicode="?" horiz-adv-x="946" d="M920 1171Q917 1107 890 1055T823 955T739 861T659 762T600 648T582 508H258Q251 612 267 689T311 825T374 928T441 1012T493 1090T516 1176V1276Q514 1310 500 1326T455 1343Q427 1343 411 1326T393 1280Q392 1273 392 1252T391 1207T391 1162T391 1135H29Q29 1159 29 1193T29 1260T31 1321T35 1362Q40 1428 73 1481T165 1573T303 1632T481 1653Q687 1653 798 1577T920 1362Q923 1319 923 1269T920 1171ZM616 0H229V436H616V0Z"/><glyph unicode="@" horiz-adv-x="1530" d="M1503 858Q1500 753 1473 662T1396 504T1278 399T1124 360Q1086 360 1052 367T989 392T941 439T909 512Q874 438 804 399T637 360Q487 360 412 451T342 713Q345 800 371 884T446 1035T566 1141T729 1182Q770 1182 802 1173T858 1151T896 1120T915 1087L934 1163H1184Q1175 1101 1164 1034T1142 903T1120 786T1104 694Q1095 640 1109 612T1174 584Q1212 584 1239 606T1284 667T1311 756T1323 864Q1327 985 1297 1089T1203 1270T1045 1390T825 1434Q742 1434 662 1415T509 1358T376 1264T270 1134T198 969T168 770Q163 595 209 470T338 263T534 144T778 106Q838 106 893 116T998 144T1089 184T1163 231L1227 117Q1196 94 1155 70T1059 25T932 -9T768 -23Q608 -23 471 23T234 166T79 413T29 772Q33 941 92 1084T257 1333T508 1497T829 1556Q991 1556 1118 1500T1333 1349T1464 1127T1503 858ZM844 838Q845 848 842 862T831 889T809 911T776 920Q705 920 667 870T629 727Q629 711 631 695T642 665T665 644T705 635Q758 635 787 666T825 741Q830 760 836 789T844 838Z"/><glyph unicode="A" horiz-adv-x="1124" d="M469 403L414 0H-2L276 1634H872L1126 0H705L653 403H469ZM618 707Q609 769 602 823Q599 846 596 869T590 911T585 946T582 969Q575 1007 571 1044T565 1112Q562 1147 561 1180Q560 1148 558 1113Q556 1083 553 1045T543 969Q542 961 540 946T534 911T527 868T520 823Q511 770 502 707H618Z"/><glyph unicode="B" horiz-adv-x="1147" d="M1042 121Q996 65 915 33T700 0H51V1634H698Q821 1634 899 1601T1020 1513Q1054 1470 1073 1402T1092 1247Q1092 1157 1079 1078T1030 948Q1005 906 964 880T860 846Q931 838 979 808T1059 735Q1077 711 1089 679T1108 610T1117 532T1120 449Q1120 343 1102 258T1042 121ZM657 1143Q657 1183 654 1217T645 1270Q639 1290 622 1299T580 1309H463V965H590Q605 965 623 974T647 1012Q650 1030 653 1061T657 1143ZM662 371Q664 381 666 396T669 428T671 463T672 496Q672 531 670 564T662 618Q654 644 638 654T600 664H463V322H598Q624 322 639 332T662 371Z"/><glyph unicode="C" horiz-adv-x="1096" d="M1071 631Q1071 613 1071 581T1071 509T1068 426T1061 342Q1051 260 1016 194T920 80T770 8T563 -18Q457 -18 377 2T240 59T145 145T86 256Q69 303 58 363T40 496T30 650T27 821Q27 907 29 974T37 1098T50 1208T70 1319Q85 1398 128 1459T238 1563T391 1627T578 1649Q802 1649 920 1547T1059 1255Q1061 1231 1063 1195T1066 1121T1068 1047T1069 987H668Q667 1013 667 1041T665 1095T662 1146T657 1190Q652 1227 630 1248T569 1270Q529 1270 506 1247T477 1186Q465 1105 462 1011T459 829Q459 758 460 693T465 573T471 481T479 426Q490 381 513 366T571 350Q606 350 629 367T657 428Q661 456 663 487T667 547T669 597T670 631H1071Z"/><glyph unicode="D" horiz-adv-x="1085" d="M965 152Q939 116 907 88T834 40T739 10T618 0H51V1634H571Q644 1634 704 1626T812 1601T898 1557T965 1495Q991 1463 1009 1409T1038 1276T1054 1092T1059 852Q1059 694 1056 581T1043 387T1015 251T965 152ZM645 385Q650 425 653 462T659 549T661 672T662 854Q662 879 661 925T658 1023T652 1128T643 1219Q638 1251 617 1273T555 1296H463V311H563Q595 311 617 332T645 385Z"/><glyph unicode="E" horiz-adv-x="946" d="M926 0H51V1634H922V1255H465V1001H895V643H465V371H926V0Z"/><glyph unicode="F" horiz-adv-x="934" d="M922 1255H467V997H883V625H467V0H51V1634H922V1255Z"/><glyph unicode="G" horiz-adv-x="1112" d="M1085 0H778L758 68Q739 48 711 33T649 7T575 -10T496 -16Q320 -16 206 61T61 303Q47 375 37 502T27 809Q27 870 28 941T33 1084T45 1221T68 1339Q83 1391 116 1446T207 1546T352 1621T563 1651Q688 1651 775 1624T920 1550T1008 1445T1053 1323Q1055 1312 1057 1288T1062 1235T1065 1173T1068 1114T1070 1066T1071 1040H664Q664 1049 663 1070T660 1118T656 1172T649 1225Q644 1256 624 1276T569 1296Q493 1296 481 1219Q475 1177 471 1138T465 1053T462 949T461 811Q461 763 462 705T467 591T473 491T481 424Q491 367 516 340T586 313Q635 313 659 344T684 432V618H549V961H1081V383Q1081 312 1081 244T1083 121Q1084 58 1085 0Z"/><glyph unicode="H" horiz-adv-x="1116" d="M1065 0H649V637H465V0H51V1634H465V995H649V1634H1065V0Z"/><glyph unicode="I" horiz-adv-x="532" d="M481 0H53V1634H481V0Z"/><glyph unicode="J" horiz-adv-x="686" d="M643 397Q643 287 615 211T529 87T386 18T184 -4Q148 -4 125 -4T85 -2T51 2T12 6V375Q41 375 73 375T137 377Q163 378 180 388T207 414T221 447T225 481V1634H643V397Z"/><glyph unicode="K" horiz-adv-x="1169" d="M1167 0H698L508 543L465 463V0H51V1634H465V1051L733 1634H1169L831 928L1167 0Z"/><glyph unicode="L" horiz-adv-x="948" d="M940 0H51V1634H477V375H940V0Z"/><glyph unicode="M" horiz-adv-x="1530" d="M1483 0H1102V852L946 0H598L430 852V0H51V1634H608L772 805L942 1634H1483V0Z"/><glyph unicode="N" horiz-adv-x="1073" d="M1024 0H670L438 635V0H51V1634H401L633 987V1634H1024V0Z"/><glyph unicode="O" horiz-adv-x="1116" d="M557 1651Q673 1651 761 1625T912 1552T1012 1441T1065 1298Q1070 1271 1075 1232T1083 1137T1089 1007T1092 836Q1092 669 1085 541T1053 315Q1029 223 989 159T888 55T746 -4T557 -23Q444 -23 360 -2T216 62T118 169T59 319Q35 417 31 542T27 821Q27 908 28 977T32 1100T39 1197T51 1274Q69 1355 102 1424T195 1543T342 1622T557 1651ZM561 332Q601 332 623 359T651 420Q657 453 661 491T667 577T671 683T672 815Q672 856 672 913T670 1026T665 1130T657 1200Q648 1247 628 1269T561 1292Q514 1292 494 1268T465 1198Q461 1177 458 1131T453 1028T450 914T449 815Q449 666 454 571T469 418Q475 383 496 358T561 332Z"/><glyph unicode="P" horiz-adv-x="1106" d="M1083 1108Q1083 962 1057 864T975 705Q921 646 842 618T655 584Q638 583 607 583T546 582H471V0H51V1634H659Q768 1634 846 1604T979 1511Q1030 1451 1056 1352T1083 1108ZM664 1087Q664 1118 661 1145T651 1198Q643 1226 627 1244T578 1262H469V920H569Q591 920 606 923T632 935T647 957T657 989Q662 1014 663 1035T664 1087Z"/><glyph unicode="Q" horiz-adv-x="1116" d="M885 59Q893 53 904 43T926 23Q944 9 959 -2T987 -20L768 -313Q764 -312 745 -297T698 -260T638 -212T578 -160Q557 -141 534 -119T490 -76T453 -35T428 -2Q345 5 281 32T171 102T95 203T51 332Q39 397 33 522T27 821Q27 908 28 977T32 1100T39 1197T51 1274Q69 1355 102 1424T195 1543T342 1622T557 1651Q673 1651 761 1625T912 1552T1012 1441T1065 1298Q1070 1271 1075 1232T1083 1137T1089 1007T1092 836Q1092 653 1084 539T1063 358Q1041 250 997 177T885 59ZM563 324Q603 324 624 344T651 399Q657 435 661 477T667 570T671 681T672 815Q672 856 672 913T670 1026T665 1130T657 1200Q648 1247 628 1269T561 1292Q514 1292 494 1268T465 1198Q461 1177 458 1131T453 1028T450 914T449 815Q449 740 450 680T453 569T460 476T469 397Q478 324 563 324Z"/><glyph unicode="R" horiz-adv-x="1124" d="M1073 1141Q1073 1042 1061 974T1028 858Q1003 802 973 771T911 725L1118 0H690L539 623H455V0H51V1634H670Q776 1634 855 1600T983 1499Q1025 1440 1049 1351T1073 1141ZM657 1100Q657 1115 656 1131T652 1163T648 1190T643 1208Q634 1233 612 1250T561 1268H461V954Q463 954 479 954T515 955Q538 955 567 956Q589 956 611 966T639 995Q642 1003 645 1015T651 1042T655 1072T657 1100Z"/><glyph unicode="S" horiz-adv-x="1030" d="M1010 432Q1010 324 978 239T884 96T728 8T514 -23Q285 -23 161 66T23 317Q20 342 19 368T18 418T18 460T18 487H414Q414 473 415 443T420 377Q423 342 446 325T512 307Q557 307 577 334T598 410Q598 443 591 469T565 520T516 571T440 629Q431 635 410 650T362 685T309 723T264 756Q206 797 160 838T82 932T33 1052T16 1214Q16 1316 50 1397T149 1536T306 1623T512 1653Q630 1653 715 1624T858 1543T946 1425T989 1282Q991 1264 993 1240T996 1193T998 1149T999 1120H602Q602 1127 602 1145T601 1182T600 1217T598 1235Q593 1269 574 1288T512 1307Q469 1307 445 1286T420 1221Q420 1185 431 1159T463 1108T514 1061T584 1008Q598 998 623 979T675 940T725 902T760 877Q818 833 864 790T943 696T992 581T1010 432Z"/><glyph unicode="T" horiz-adv-x="963" d="M954 1255H690V0H268V1255H6V1634H954V1255Z"/><glyph unicode="U" horiz-adv-x="1104" d="M1059 434Q1059 323 1024 239T923 97T764 11T557 -18Q447 -18 353 8T190 91T82 233T43 440V1634H457V436Q457 332 551 332Q596 332 619 357T643 434V1634H1059V434Z"/><glyph unicode="V" horiz-adv-x="1108" d="M1106 1634L805 0H279L2 1634H426L555 530L684 1634H1106Z"/><glyph unicode="W" horiz-adv-x="1661" d="M1659 1634L1425 0H936Q909 170 887 322Q878 386 868 453T850 581T836 694T827 780Q826 746 821 695T809 582T792 453T773 322Q750 171 723 0H246L0 1634H426Q452 1384 472 1171Q481 1080 489 989T503 817T514 675T518 580Q518 612 523 674T536 817T554 988T575 1171Q601 1384 633 1634H1034Q1070 1384 1098 1171Q1110 1080 1121 989T1142 817T1157 675T1163 580Q1163 612 1166 674T1175 817T1188 988T1203 1171Q1221 1384 1243 1634H1659Z"/><glyph unicode="X" horiz-adv-x="1157" d="M578 334L453 0H2L358 852L25 1634H471L600 1290L729 1634H1147L815 784L1153 0H707L578 334Z"/><glyph unicode="Y" horiz-adv-x="1153" d="M1153 1634L778 625V0H356V614L0 1634H426Q463 1499 494 1385Q507 1336 519 1287T542 1196T559 1122T567 1073Q568 1089 575 1121T593 1196T618 1288T648 1386Q682 1500 727 1634H1153Z"/><glyph unicode="Z" horiz-adv-x="1001" d="M989 0H16V344L494 1253H55V1634H981V1288L496 373H989V0Z"/><glyph unicode="[" horiz-adv-x="559" d="M539 -338H51V1634H539V1327H414V-43H539V-338Z"/><glyph unicode="\" horiz-adv-x="465" d="M-6 1636H221L500 -332H274L-6 1636Z"/><glyph unicode="]" horiz-adv-x="561" d="M23 -338V-43H145V1333H23V1634H506V-338H23Z"/><glyph unicode="^" horiz-adv-x="1057" d="M528 1339L242 1034L16 1264L377 1655H680L1042 1264L815 1034L528 1339Z"/><glyph unicode="_" horiz-adv-x="770" d="M770 -379H0V-51H770V-379Z"/><glyph unicode="`" horiz-adv-x="901" d="M666 1202H317L119 1542H518L666 1202Z"/><glyph unicode="a" horiz-adv-x="961" d="M934 0H561Q559 18 558 35Q556 49 556 62T555 80Q512 30 444 10T299 -10Q255 -10 208 -1T121 33T53 104T20 223Q19 232 19 252T19 296T20 346T23 391Q28 452 52 503T122 595T240 662T412 702Q446 707 480 709T551 711Q551 732 551 755T547 795Q541 850 487 850Q461 850 446 840T424 803Q421 784 419 770T416 735H61Q59 775 63 821T82 913Q96 962 129 1005T215 1080T339 1130T500 1149Q606 1149 683 1127T812 1064T889 969T918 846Q919 813 919 773T920 691T920 606T918 524Q918 497 918 463T917 391T916 315T915 240Q915 203 915 162T918 86T924 27T934 0ZM553 487Q545 487 532 487T512 485Q497 483 475 477T434 453Q413 433 407 406T401 350Q401 312 420 292T473 272Q496 272 516 282T545 324Q551 347 552 373T553 426V487Z"/><glyph unicode="b" horiz-adv-x="989" d="M645 1143Q757 1143 824 1090T924 928Q942 863 953 776T965 582Q965 477 957 404T936 272Q910 138 835 66T633 -6Q554 -6 498 12T397 76L356 0H43V1636H414V1034Q438 1081 498 1112T645 1143ZM496 836Q462 836 448 818T428 774Q426 762 423 746T418 705T414 647T412 567Q412 508 413 470T416 405T420 362T426 328Q431 303 449 288T498 272Q532 272 548 285T569 330Q572 346 574 374T578 435T579 502T580 567Q580 624 577 679T567 772Q562 798 546 817T496 836Z"/><glyph unicode="c" horiz-adv-x="930" d="M909 621H557Q557 675 557 711T551 770Q546 795 531 815T481 836Q449 836 432 819T408 770Q405 752 403 727T399 674T396 617T395 563Q395 538 395 510T397 454T399 402T403 360Q408 326 425 308T477 289Q509 289 528 305T553 362Q556 385 558 420T561 500H905Q905 390 897 310T858 170Q837 130 805 96T728 38T621 0T481 -14Q396 -14 332 0T220 39T139 100T84 180Q58 231 42 330T25 565Q25 667 36 755T78 924Q97 973 133 1013T220 1082T335 1127T477 1143Q574 1143 641 1125T754 1077T828 1007T874 924Q882 906 888 875T899 804T906 717T909 621Z"/><glyph unicode="d" horiz-adv-x="973" d="M350 1141Q429 1141 480 1118T563 1055V1636H936V190Q936 161 938 129T942 67Q945 34 948 0H629L588 82Q557 40 503 16T360 -8Q166 -8 90 147Q56 219 41 324T25 567Q25 682 35 776T70 938Q88 990 117 1028T183 1092T262 1129T350 1141ZM483 838Q451 838 432 821T408 778Q404 756 402 734T398 687T396 631T395 561Q395 513 395 479T397 419T401 376T408 342Q413 317 429 301T481 285Q513 285 531 301T555 344Q558 361 560 379T563 422T566 480T567 561Q567 642 565 693T557 778Q554 800 535 819T483 838Z"/><glyph unicode="e" horiz-adv-x="940" d="M915 389Q914 378 911 353T902 296T884 229T854 162Q834 126 804 94T728 37T623 -1T481 -16Q339 -16 248 27T111 145Q70 211 47 311T23 563Q23 630 27 684T39 785T61 870T94 946Q114 983 144 1018T221 1081T332 1126T483 1143Q571 1143 636 1122T749 1066T827 989T874 903Q890 862 900 809T914 695T920 570T920 444H395Q395 416 395 398T395 367T397 345T401 326Q409 292 432 280T481 268Q504 268 525 280T555 319Q560 338 561 358T563 389H915ZM561 682Q561 725 559 754T551 797Q535 850 477 850Q449 850 429 837T401 797Q396 783 393 754T389 682H561Z"/><glyph unicode="f" horiz-adv-x="610" d="M602 801H475V0H96V801H8V1126H96V1319Q96 1386 113 1445T169 1549T274 1619T434 1645Q497 1645 539 1644T608 1640V1343Q603 1344 595 1345T577 1346T560 1347T547 1348Q510 1348 492 1325T473 1276V1124H602V801Z"/><glyph unicode="g" horiz-adv-x="1047" d="M516 1145Q582 1145 632 1138T718 1118T780 1091T823 1061Q842 1082 868 1096T925 1119T987 1131T1051 1133V918L924 920Q933 903 941 870T952 799Q953 781 953 759T951 713T946 665T938 618Q909 504 805 443T526 381Q466 381 421 390T356 412Q336 410 328 401T319 377Q319 360 331 352T372 342T444 339T553 340Q683 339 775 319T927 260T1014 164T1042 33Q1042 -45 1013 -109T921 -219T759 -290T518 -315Q396 -315 302 -304T144 -267T46 -198T12 -92Q12 -8 54 37T168 106Q130 111 101 127T53 167T24 223T14 291Q14 360 64 405T193 471Q140 508 114 554T80 672Q78 690 78 714T78 762T78 809T80 844Q83 898 110 952T191 1049T325 1118T516 1145ZM518 881Q489 881 472 864T453 815Q453 806 453 784T452 737T451 688T451 653Q453 629 470 611T518 592Q550 592 566 609T584 651Q585 660 585 684T586 735T587 786T586 821Q580 881 518 881ZM512 -63Q570 -63 607 -60T666 -49T696 -31T705 -4Q705 12 696 22T667 39T612 47T528 51Q510 52 489 52T448 53T410 54T379 57Q356 48 344 35T332 -4Q332 -35 372 -49T512 -63Z"/><glyph unicode="h" horiz-adv-x="965" d="M930 0H549Q548 0 548 4T548 29T547 97T547 227T547 440T547 758Q547 790 534 806T489 823Q422 823 422 739V0H43V1636H420V1020Q428 1047 450 1069T503 1108T572 1134T653 1143Q791 1143 858 1063T926 815Q926 613 926 474T926 245T927 105T928 32T929 4T930 0Z"/><glyph unicode="i" horiz-adv-x="477" d="M436 1174H43V1513H436V1174ZM442 0H59Q50 0 48 15T45 78V1126H434V76Q434 31 435 17T442 0Z"/><glyph unicode="j" horiz-adv-x="481" d="M440 1174H47V1513H440V1174ZM436 -39Q436 -120 412 -182T344 -286T237 -349T94 -371Q69 -371 38 -371T-23 -369T-77 -366T-113 -362V-70Q-99 -70 -86 -69T-49 -68Q5 -68 27 -41T49 35V1126H436V-39Z"/><glyph unicode="k" horiz-adv-x="991" d="M993 0H602L479 403L422 324V0H43V1636H422V803L598 1126H985L764 705L993 0Z"/><glyph unicode="l" horiz-adv-x="463" d="M428 0H47Q44 0 43 27T41 88V1536Q41 1564 40 1593T35 1634H418Q418 1631 420 1613T422 1565V78Q422 41 422 24T428 0Z"/><glyph unicode="m" horiz-adv-x="1432" d="M1032 0Q1031 0 1031 4T1031 29T1030 97T1029 227T1028 440T1028 758Q1028 786 1017 804T973 823Q941 823 925 800T909 748V0H541V760Q541 789 528 806T487 823Q455 823 438 799T420 743V0H43V1126H410V1018Q422 1044 443 1066T496 1106T569 1133T664 1143Q709 1143 744 1132T807 1102T852 1058T881 1004Q912 1079 980 1112T1143 1145Q1272 1145 1332 1073T1393 874Q1393 656 1393 507T1393 261T1393 111T1394 34T1395 5T1397 0H1032Z"/><glyph unicode="n" d="M934 0H557Q555 1 554 5T551 32T549 99T548 226T547 434T547 743Q547 785 534 804T489 823Q457 823 440 800T422 725V0H43V1126H410V1016Q434 1073 498 1108T653 1143Q723 1143 774 1122T858 1062T908 967T924 840Q924 632 924 489T924 253T926 108T928 33T930 5T934 0Z"/><glyph unicode="o" horiz-adv-x="963" d="M938 567Q938 481 930 402T903 266Q859 135 754 61T477 -14Q397 -14 329 3T206 55T113 144T55 272Q40 332 32 406T23 567Q23 609 25 652T33 737T45 816T63 883Q82 940 119 988T209 1070T331 1124T483 1143Q823 1143 903 868Q923 802 930 728T938 567ZM569 561Q569 586 569 619T567 684T563 741T559 778Q551 807 535 822T483 838Q451 838 433 821T408 776Q403 755 401 729T397 674T395 616T395 561Q395 535 395 505T397 445T400 391T406 350Q411 321 430 304T481 287Q515 287 534 304T559 350Q562 365 564 390T567 445T568 504T569 561Z"/><glyph unicode="p" horiz-adv-x="989" d="M965 578Q965 469 955 377T924 221Q890 115 818 56T629 -4Q550 -4 499 12T416 57V-334H43V1126H408V1030Q434 1080 494 1111T641 1143Q845 1143 915 971Q941 903 953 804T965 578ZM580 567Q580 646 576 700T567 778Q562 801 546 816T498 831Q466 831 449 815T426 776Q421 751 419 728T415 681T413 629T412 567Q412 403 424 336Q429 314 445 298T496 281Q530 281 544 297T567 342Q573 370 576 427T580 567Z"/><glyph unicode="q" horiz-adv-x="983" d="M950 -334H578L571 -326V74Q542 36 489 14T360 -8Q249 -8 178 41T72 188Q46 260 36 351T25 567Q25 631 27 680T35 771T47 846T66 915Q103 1028 179 1083T371 1139Q452 1139 498 1115T575 1036Q575 1038 575 1051T576 1082L578 1126H946V-197Q946 -219 946 -242T948 -286T949 -319T950 -334ZM569 569Q569 629 567 681T557 776Q552 802 534 820T483 838Q448 838 431 820T408 770Q404 749 402 724T398 672T396 619T395 569Q395 544 395 511T397 446T401 386T406 344Q411 319 430 302T481 285Q513 285 531 303T555 344Q558 358 560 382T565 438T568 503T569 569Z"/><glyph unicode="r" horiz-adv-x="696" d="M692 1135V778Q667 788 631 794T555 801Q493 801 460 768T426 649V0H43V1126H418V1012Q424 1045 443 1069T489 1110T548 1135T612 1143Q638 1143 657 1142T692 1135Z"/><glyph unicode="s" horiz-adv-x="885" d="M864 317Q864 237 838 175T759 69T631 3T455 -20Q254 -20 147 45T23 233Q20 248 19 266T16 304T15 340T16 369H367Q367 362 368 343T371 305Q377 260 440 260Q504 260 504 317Q504 351 485 372T410 414Q398 418 378 425T334 440T289 456T254 469Q192 490 149 521T77 596T36 695T23 823Q23 893 49 952T125 1054T251 1121T426 1145Q522 1145 592 1129T710 1082T786 1011T825 920Q831 896 834 877T839 838T841 799T842 754H496Q496 757 496 764T495 779T494 795T492 805Q490 820 478 833T434 846Q403 846 387 833T371 795Q371 769 387 756T444 729Q458 724 485 715T541 695T595 675T633 662Q754 617 809 536T864 317Z"/><glyph unicode="t" horiz-adv-x="639" d="M618 801H469V360Q469 322 482 309T524 295Q547 295 567 296T606 303V6Q589 1 565 -2T511 -8T449 -12T383 -14Q329 -14 276 1T181 52T114 149T88 299V801H6V1126H84Q85 1126 86 1135T89 1161T90 1197T92 1238L94 1350L459 1366V1124H618V801Z"/><glyph unicode="u" horiz-adv-x="961" d="M926 0H559L553 68Q511 27 460 10T338 -8Q271 -8 216 10T122 70T61 179T39 346Q39 434 39 526T39 705T38 868T37 1001T36 1092T35 1126H416V371Q416 323 430 306T477 289Q509 289 526 309T543 381V1126H920V133Q920 112 920 91T922 52T924 20T926 0Z"/><glyph unicode="v" horiz-adv-x="971" d="M965 1126L727 0H248L2 1126H387L489 410L590 1126H965Z"/><glyph unicode="w" horiz-adv-x="1491" d="M1489 1126L1282 0H831Q818 66 806 133Q795 190 784 257T762 381Q759 400 756 432T750 495Q747 531 745 571Q743 531 740 495Q738 464 736 432T731 383Q728 357 724 328T714 267T703 203T692 141Q680 71 666 0H215L2 1126H385L479 373L555 1126H940L1028 373L1110 1126H1489Z"/><glyph unicode="x" horiz-adv-x="946" d="M485 877L563 1126H928L700 567L942 0H537L457 227L377 0H0L240 535L12 1126H410L485 877Z"/><glyph unicode="y" horiz-adv-x="1001" d="M999 1126L598 -334H219L319 6L2 1126H387Q388 1117 393 1085T406 1007T425 904T446 789T467 674T485 572T498 497T504 461Q505 467 510 496T522 571T539 671T558 785T577 900T595 1003T608 1083T614 1126H999Z"/><glyph unicode="z" horiz-adv-x="854" d="M834 0H23V307L397 807H37V1126H827V819L451 319H834V0Z"/><glyph unicode="{" horiz-adv-x="684" d="M655 -338H475Q394 -338 333 -318T230 -262T168 -179T147 -76Q147 -9 154 53T170 174T186 286T193 387Q193 429 185 463T158 520T107 556T27 569V897Q80 898 113 910T166 943T192 992T199 1053Q199 1102 192 1139T175 1211T158 1286T150 1380Q150 1437 173 1484T238 1564T337 1615T461 1634H655V1333Q606 1333 573 1328T519 1309T492 1268T487 1200Q490 1175 497 1146T511 1084T524 1018T530 950Q530 860 482 805T328 735Q386 728 425 703T487 641T520 563T530 481Q530 438 525 388T512 288T497 190T487 104Q484 63 491 37T518 -4T571 -24T655 -29V-338Z"/><glyph unicode="|" horiz-adv-x="633" d="M463 -410H172V1638H463V-410Z"/><glyph unicode="}" horiz-adv-x="684" d="M27 -338V-29Q77 -30 110 -25T163 -5T190 36T195 104Q192 142 185 189T171 287T158 388T152 481Q152 520 161 562T194 641T256 702T354 735Q249 749 201 804T152 950Q152 984 157 1018T170 1084T185 1145T195 1200Q198 1242 191 1268T163 1308T110 1328T27 1333V1634H221Q288 1634 345 1616T443 1564T508 1484T532 1380Q532 1326 525 1287T508 1212T491 1139T483 1053Q483 1020 490 992T516 943T569 910T657 897V569Q609 569 577 557T525 521T497 463T489 387Q489 339 496 286T512 175T528 54T535 -76Q535 -131 515 -179T453 -262T351 -317T207 -338H27Z"/><glyph unicode="~" horiz-adv-x="1159" d="M545 606Q520 627 500 645T461 678T421 701T377 709Q350 709 330 695T295 661T271 617T256 575L4 686Q32 777 71 840T157 942T259 998T375 1016Q450 1016 512 987T637 901Q660 881 679 864T717 833T756 813T803 805Q828 805 848 816T883 845T910 885T928 930L1145 784Q1098 645 1012 573T803 500Q767 500 736 505T674 523T612 555T545 606Z"/><glyph unicode=" " horiz-adv-x="162"/><glyph unicode="¡" horiz-adv-x="508" d="M66 1636H446V1200H66V1636ZM45 0L90 1126H424L469 0H45Z"/><glyph unicode="¢" horiz-adv-x="973" d="M385 1389V1511H598V1391Q671 1383 723 1363T813 1315T874 1253T913 1182Q921 1164 928 1125T940 1040T949 949T952 872H590Q590 885 590 906T590 950T590 995T588 1032Q576 1112 520 1112Q492 1112 475 1098T451 1044Q448 999 446 969T443 915T441 869T440 815Q440 794 440 763T442 700T444 637T449 588Q452 559 457 541T471 512T491 498T518 494Q549 494 563 514T584 584Q585 591 586 613T588 661T589 713T590 752H952Q952 732 951 690T944 598T930 502T905 424Q868 353 793 301T598 233V84H385V236Q324 244 277 261T194 302T132 358T88 426Q62 479 45 574T27 815Q27 870 30 918T40 1009T58 1093T84 1174Q115 1257 192 1313T385 1389Z"/><glyph unicode="£" horiz-adv-x="1008" d="M166 854Q147 882 127 917T89 992T61 1073T49 1153V1305Q50 1380 74 1443T151 1553T291 1626T502 1653Q600 1653 671 1637T793 1594T875 1532T925 1456T951 1375T961 1296Q961 1289 961 1264T961 1204T962 1130T962 1055T963 995T963 963H588V1223Q587 1257 583 1278T569 1313T546 1331T514 1337Q479 1337 462 1313T444 1243V1110Q444 1065 450 1029T466 963T492 907T526 854H922V553H604Q607 530 606 509T602 469Q593 416 565 386T502 342H948V0H37V352Q71 358 105 366T167 387T218 419T252 467Q258 482 259 503T254 553H51V854H166Z"/><glyph unicode="¤" horiz-adv-x="1152" d="M1056 392L940 284L740 500Q668 452 572 452Q480 452 408 500L208 284L92 392L300 608Q272 648 262 686T252 780Q252 828 262 870T300 952L92 1168L208 1276L408 1060Q480 1108 572 1108Q668 1108 740 1060L944 1276L1060 1156L852 952Q880 912 890 872T900 780Q900 684 848 608L1056 392ZM748 780Q748 860 698 910T572 960Q496 960 448 910T400 780Q400 700 450 652T572 604Q652 604 700 652T748 780Z"/><glyph unicode="¥" horiz-adv-x="1196" d="M381 408H49V629H381V668L0 1634H428Q472 1514 506 1410Q521 1366 535 1321T560 1237T579 1166T588 1116Q589 1134 597 1165T618 1237T646 1322T678 1411Q716 1514 764 1634H1196L799 680V629H1143V408H799V356H1143V133H799V0H381V133H49V356H381V408Z"/><glyph unicode="¦" horiz-adv-x="633" d="M463 731H172V1638H463V731ZM463 -410H172V455H463V-410Z"/><glyph unicode="§" horiz-adv-x="829" d="M51 989Q62 1020 78 1044T112 1087T151 1118T190 1141Q145 1176 125 1217T102 1321Q101 1328 101 1338T101 1361T101 1384T104 1403Q109 1460 136 1503T207 1574T305 1617T422 1632Q481 1632 537 1623T638 1586T712 1511T748 1386Q749 1378 749 1366T750 1340T751 1313T750 1290H498V1360Q498 1398 484 1414T446 1430Q423 1430 411 1421T393 1386V1341Q393 1326 393 1312T401 1284T427 1255T481 1223Q497 1213 523 1200T573 1176Q615 1156 646 1136T699 1094T737 1046T762 993Q770 968 773 939T776 880T767 822T748 772Q726 718 686 688T592 641Q689 584 739 520T799 371Q800 362 800 349T800 321T800 294T799 270Q794 196 767 142T693 53T581 1T436 -16Q367 -16 303 -4T186 40T98 129T51 276Q50 285 50 298T49 326T48 355T47 381L362 379V301Q363 275 368 259T383 234T405 222T432 219Q464 219 482 234T500 289V340Q498 360 493 377T476 410T445 442T397 475Q386 482 364 497T314 530T256 566T201 598Q141 629 99 679T45 799Q40 822 39 847T37 898T41 946T51 989ZM346 838Q357 819 381 807T430 786Q452 786 468 802T492 844Q498 861 497 884T485 920Q473 941 450 955T395 979Q377 979 362 964T340 926Q331 906 333 881T346 838Z"/><glyph unicode="¨" horiz-adv-x="901" d="M793 1202H506V1505H793V1202ZM397 1202H111V1505H397V1202Z"/><glyph unicode="©" horiz-adv-x="1231" d="M1194 852Q1192 733 1156 639T1048 480T870 379T621 344Q478 344 370 378T189 478T77 637T37 852Q36 877 36 913T35 992T35 1081T37 1171Q40 1288 80 1377T195 1526T375 1616T616 1647Q748 1647 853 1618T1033 1529T1149 1380T1194 1171Q1195 1141 1195 1103T1195 1023T1195 938T1194 852ZM1051 889Q1052 917 1052 956T1052 1035T1052 1112T1051 1169Q1048 1245 1023 1306T945 1410T811 1476T616 1499Q503 1499 421 1476T285 1411T205 1307T178 1171Q177 1139 177 1097T177 1015T177 940T178 889Q181 691 288 588T616 485Q738 485 820 511T953 588T1025 714T1051 889ZM948 924Q948 915 948 901T947 871T946 842T944 819Q942 777 916 743T846 685T743 648T614 635Q465 635 386 683T295 815Q292 837 291 854T288 890T287 929T287 981Q287 1040 288 1083T295 1153Q298 1188 321 1221T386 1279T491 1320T635 1335Q710 1335 767 1318T862 1273T921 1210T944 1139Q946 1117 947 1095T948 1038H705V1092Q700 1119 684 1136T631 1153Q586 1153 567 1130T547 1077Q547 1062 546 1035T545 985Q545 973 545 958T546 928T546 901T547 885Q549 843 567 826T631 809Q706 809 709 877V924H948Z"/><glyph unicode="ª" horiz-adv-x="928" d="M893 508H524Q522 529 521 547Q519 562 519 575T518 592Q480 542 418 520T285 498Q245 498 201 507T117 541T51 610T18 725Q17 735 17 755T16 799T17 850T20 897Q34 1011 122 1089T381 1194Q412 1199 447 1203T514 1210Q516 1232 516 1256T516 1298Q514 1326 503 1339T467 1352Q420 1352 414 1303Q411 1286 411 1269T410 1235H57Q57 1275 60 1313T74 1397Q84 1445 115 1488T196 1564T316 1616T475 1636Q583 1636 658 1614T782 1553T853 1460T879 1341Q880 1306 880 1267T880 1186T879 1104T877 1024Q876 997 876 965T876 897T876 824T877 752Q877 714 877 673T878 596T883 536T893 508ZM899 160H27V459H899V160ZM514 995H501Q496 995 490 995T479 993Q464 990 453 987T430 975Q418 966 409 951T397 918Q394 904 394 886T395 850Q401 804 432 793Q449 786 466 789T498 807Q506 818 510 835T514 874Q515 883 515 900T515 935T515 970T514 995Z"/><glyph unicode="«" horiz-adv-x="995" d="M961 209L508 573V856L961 1219V852L801 715L961 578V209ZM485 209L33 573V856L485 1219V852L326 715L485 578V209Z"/><glyph unicode="¬" horiz-adv-x="1536" d="M1116 352V728H212V920H1296V352H1116Z"/><glyph unicode="­" horiz-adv-x="698" d="M678 598H20V989H678V598Z"/><glyph unicode="®" horiz-adv-x="1231" d="M1194 852Q1192 733 1156 639T1048 480T870 379T621 344Q478 344 370 378T189 478T77 637T37 852Q36 877 36 913T35 992T35 1081T37 1171Q40 1288 80 1377T195 1526T375 1616T616 1647Q748 1647 853 1618T1033 1529T1149 1380T1194 1171Q1195 1141 1195 1103T1195 1023T1195 938T1194 852ZM1051 889Q1052 917 1052 956T1052 1035T1052 1112T1051 1169Q1048 1245 1023 1306T945 1410T811 1476T616 1499Q503 1499 421 1476T285 1411T205 1307T178 1171Q177 1139 177 1097T177 1015T177 940T178 889Q181 692 288 589T616 485Q738 485 820 511T953 588T1025 714T1051 889ZM963 653H709L606 860H551V653H295V1325H653Q816 1325 888 1270T961 1108Q961 1069 953 1035T927 974T885 929T825 903L963 653ZM702 1071Q702 1114 679 1131T614 1149H551V995H612Q654 995 678 1011T702 1071Z"/><glyph unicode="¯" horiz-adv-x="901" d="M793 1227H111V1468H793V1227Z"/><glyph unicode="°" horiz-adv-x="627" d="M309 1577Q368 1577 420 1554T512 1491T575 1397T598 1282Q598 1222 575 1169T513 1077T421 1014T309 991Q252 991 201 1014T110 1076T48 1169T25 1282Q25 1343 48 1397T110 1491T200 1554T309 1577ZM309 1376Q272 1376 245 1350T217 1282Q217 1263 224 1247T244 1218T274 1199T309 1192Q329 1192 346 1199T376 1218T396 1246T403 1282Q403 1324 376 1350T309 1376Z"/><glyph unicode="±" horiz-adv-x="1536" d="M672 352V764H200V936H672V1352H864V936H1340V764H864V352H672ZM204 24V216H1336V24H204Z"/><glyph unicode="²" horiz-adv-x="758" d="M684 795H72V971Q91 992 124 1020T196 1080T273 1149T344 1223T396 1298T416 1372V1421Q416 1447 404 1460T371 1473Q349 1473 341 1463T330 1427V1321H72Q72 1329 72 1346T73 1383T73 1420T74 1444Q76 1480 96 1514T156 1576T253 1619T389 1636Q471 1636 527 1621T619 1581T672 1521T692 1446Q692 1441 692 1429T692 1402T692 1375T690 1356Q686 1303 658 1253T591 1157T507 1067T426 985H684V795Z"/><glyph unicode="³" horiz-adv-x="784" d="M494 1233Q559 1231 600 1215T666 1177T699 1130T711 1087Q713 1067 712 1039T709 979Q702 891 622 838T387 784Q247 784 164 829T76 958Q74 1002 72 1032T70 1065H332V973Q332 953 345 946T383 938Q412 938 423 949T434 987V1063Q434 1080 430 1090T416 1107T387 1116T340 1120H221V1303H352Q394 1305 411 1316T428 1358V1425Q428 1447 417 1455T383 1464Q343 1464 340 1425Q340 1417 340 1406T339 1384T339 1367T338 1358H90Q90 1359 90 1372T92 1404T95 1440T98 1468Q103 1502 124 1533T181 1588T271 1626T393 1640Q468 1640 523 1626T614 1587T669 1529T688 1456Q688 1444 689 1435T690 1405Q689 1382 680 1354T649 1301T590 1256T494 1233Z"/><glyph unicode="´" horiz-adv-x="901" d="M246 1202L393 1542H793L592 1202H246Z"/><glyph unicode="µ" horiz-adv-x="1408" d="M252 -424Q196 -424 168 -392T140 -280Q140 -200 144 -106T156 100Q164 200 168 256T172 328Q176 348 176 356V1176H368V320Q368 228 450 176T628 124Q760 124 858 190T1008 380V1176H1200V308L1220 0H1056L1020 176Q952 68 836 14T572 -40Q520 -40 444 -14T324 60Q324 -28 352 -112T380 -264Q380 -424 252 -424Z"/><glyph unicode="¶" horiz-adv-x="989" d="M936 1632V-213H811V1364H758V-213H629V500Q610 474 582 455T521 423T451 404T375 397Q313 397 260 412T165 457T97 526T59 618Q51 654 46 704T38 811T33 923T31 1028Q31 1083 33 1140T38 1251T47 1349T61 1423Q73 1468 99 1508T164 1579T252 1627T360 1645Q403 1645 444 1638T522 1617T586 1582T629 1532L637 1632H936ZM631 1036V1253Q629 1303 609 1320T559 1337Q527 1337 510 1326T485 1274Q480 1248 477 1213T473 1141T471 1070T471 1014Q471 994 471 962T473 894T477 823T483 760Q491 731 508 718T551 705Q586 705 606 722T629 782Q630 796 630 823T631 885T631 959T631 1036Z"/><glyph unicode="·" horiz-adv-x="492" d="M446 590H45V1044H446V590Z"/><glyph unicode="¸" horiz-adv-x="901" d="M438 -154Q438 -116 416 -95T336 -74V0H573V-41Q655 -41 703 -87T752 -221Q752 -277 719 -320T623 -386T472 -409T270 -381V-205Q303 -213 333 -213T387 -207T424 -187T438 -154Z"/><glyph unicode="¹" horiz-adv-x="672" d="M510 795H252V1362L94 1356V1532Q151 1532 190 1544T253 1574T290 1608T307 1634H510V795Z"/><glyph unicode="º" horiz-adv-x="928" d="M891 1075Q891 989 884 916T856 780Q844 726 814 676T734 588T615 526T453 502Q354 502 284 526T167 591T93 681T53 784Q48 807 42 839T31 909T23 989T20 1075Q20 1119 24 1165T34 1252T47 1328T61 1382Q77 1426 106 1471T182 1554T297 1614T459 1638Q554 1638 623 1615T740 1554T816 1467T858 1366Q863 1343 869 1311T880 1242T888 1162T891 1075ZM901 154H27V459H901V154ZM524 1071Q524 1099 524 1131T522 1194T520 1249T516 1286Q507 1339 457 1339Q431 1339 418 1325T399 1286Q396 1274 394 1249T391 1194T390 1131T389 1071Q389 1041 389 1009T391 948T395 893T399 852Q410 797 457 797Q483 797 497 812T514 854Q516 870 518 895T521 949T523 1010T524 1071Z"/><glyph unicode="»" horiz-adv-x="995" d="M518 215V584L674 721L518 858V1225L971 860V580L518 215ZM41 215V584L199 721L41 858V1225L496 860V580L41 215Z"/><glyph unicode="¼" horiz-adv-x="1298" d="M424 795H168V1362L8 1356V1532Q65 1532 104 1544T168 1574T205 1608T223 1634H424V795ZM860 1634Q817 1487 775 1338Q757 1275 737 1205T697 1065T658 925T621 795Q605 738 587 673T551 542T514 409T479 283Q440 141 401 0H295Q338 151 382 304Q401 369 421 440T462 585T503 729T541 864Q557 920 574 983T610 1110T646 1239T680 1361Q718 1497 756 1634H860ZM1268 154H1180V0H926V156H594V342L909 836H1180V334H1268V154ZM926 334V485L829 334H926Z"/><glyph unicode="½" horiz-adv-x="1296" d="M422 795H166V1362L8 1356V1532Q65 1532 104 1544T167 1574T204 1608T221 1634H422V795ZM825 1634Q782 1487 739 1338Q721 1275 701 1205T661 1065T621 925T584 795Q568 738 550 673T514 542T477 409T442 283Q403 141 365 0H258Q303 151 347 304Q366 369 386 440T427 585T468 729T506 864Q522 920 539 983T575 1110T610 1239T644 1361Q682 1497 719 1634H825ZM1243 0H631V176Q650 197 683 225T754 285T831 354T901 429T953 505T973 580V627Q973 653 961 665T928 678Q908 678 900 668T889 633Q888 628 888 614T887 583T887 550T887 526H631V649Q633 685 654 719T714 781T812 825T948 842Q1029 842 1085 827T1176 787T1227 726T1247 651Q1247 646 1247 634T1247 607T1247 580T1245 561Q1241 508 1213 458T1146 362T1064 272T985 190H1243V0Z"/><glyph unicode="¾" horiz-adv-x="1483" d="M446 1233Q512 1231 554 1215T621 1177T655 1130T666 1087Q668 1067 668 1039T666 979Q659 891 578 838T340 784Q200 784 119 829T29 958Q29 1002 27 1032T25 1065H287V973Q287 953 300 946T338 938Q367 938 377 949T387 987V1063Q387 1080 384 1090T370 1107T341 1116T293 1120H176V1303H307Q348 1304 364 1315T381 1358V1425Q381 1447 371 1455T338 1464Q295 1464 295 1425Q295 1417 295 1406T294 1384T294 1367T293 1358H45Q45 1359 45 1372T46 1404T48 1440T51 1468Q55 1502 76 1533T134 1588T225 1626T348 1640Q422 1640 476 1626T567 1587T622 1529T643 1456V1405Q643 1382 634 1354T603 1301T543 1256T446 1233ZM1034 1634Q992 1487 951 1338Q933 1275 914 1205T874 1065T835 925T797 795Q781 738 763 673T727 542T690 409T654 283Q614 141 575 0H469Q514 151 558 304Q577 369 597 440T638 585T679 729T717 864Q733 920 750 983T786 1110T821 1239T855 1361Q893 1497 930 1634H1034ZM1446 154H1358V0H1104V156H772V342L1087 836H1358V334H1446V154ZM1104 334V485L1006 334H1104Z"/><glyph unicode="¿" horiz-adv-x="946" d="M340 1636H727V1200H340V1636ZM31 465Q34 528 62 580T129 680T213 775T295 874T354 988T373 1128H698Q705 1024 689 947T643 811T578 708T511 624T457 546T434 461V358Q437 293 496 293Q525 293 540 310T557 356Q557 362 557 383T558 429T558 474T559 502H922Q922 477 922 443T920 375T918 314T915 274Q910 210 877 157T787 66T651 6T477 -16Q265 -16 153 60T31 274Q28 318 28 367T31 465Z"/><glyph unicode="À" horiz-adv-x="1124" d="M469 403L414 0H-2L276 1634H872L1126 0H705L653 403H469ZM618 707Q609 769 602 823Q599 846 596 869T590 911T585 946T582 969Q575 1007 571 1044T565 1112Q562 1147 561 1180Q560 1148 558 1113Q556 1083 553 1045T543 969Q542 961 540 946T534 911T527 868T520 823Q511 770 502 707H618ZM768 1690H420L221 2030H621L768 1690Z"/><glyph unicode="Á" horiz-adv-x="1124" d="M469 403L414 0H-2L276 1634H872L1126 0H705L653 403H469ZM618 707Q609 769 602 823Q599 846 596 869T590 911T585 946T582 969Q575 1007 571 1044T565 1112Q562 1147 561 1180Q560 1148 558 1113Q556 1083 553 1045T543 969Q542 961 540 946T534 911T527 868T520 823Q511 770 502 707H618ZM367 1690L514 2030H913L713 1690H367Z"/><glyph unicode="Â" horiz-adv-x="1124" d="M469 403L414 0H-2L276 1634H872L1126 0H705L653 403H469ZM618 707Q609 769 602 823Q599 846 596 869T590 911T585 946T582 969Q575 1007 571 1044T565 1112Q562 1147 561 1180Q560 1148 558 1113Q556 1083 553 1045T543 969Q542 961 540 946T534 911T527 868T520 823Q511 770 502 707H618ZM928 1692H623L559 1810L496 1692H199L375 2030H750L928 1692Z"/><glyph unicode="Ã" horiz-adv-x="1124" d="M469 403L414 0H-2L276 1634H872L1126 0H705L653 403H469ZM618 707Q609 769 602 823Q599 846 596 869T590 911T585 946T582 969Q575 1007 571 1044T565 1112Q562 1147 561 1180Q560 1148 558 1113Q556 1083 553 1045T543 969Q542 961 540 946T534 911T527 868T520 823Q511 770 502 707H618ZM580 1724Q562 1739 550 1751T528 1770T508 1782T485 1786Q465 1786 447 1767T426 1698H184Q186 1865 247 1953T414 2042Q463 2042 502 2029T578 1978Q591 1964 600 1956T617 1943T631 1937T647 1935Q673 1935 689 1958T707 2036H938Q938 1944 921 1878T873 1767T803 1702T717 1681Q695 1681 677 1682T643 1689T612 1702T580 1724Z"/><glyph unicode="Ä" horiz-adv-x="1124" d="M469 403L414 0H-2L276 1634H872L1126 0H705L653 403H469ZM618 707Q609 769 602 823Q599 846 596 869T590 911T585 946T582 969Q575 1007 571 1044T565 1112Q562 1147 561 1180Q560 1148 558 1113Q556 1083 553 1045T543 969Q542 961 540 946T534 911T527 868T520 823Q511 770 502 707H618ZM918 1692H631V1995H918V1692ZM522 1692H236V1995H522V1692Z"/><glyph unicode="Å" horiz-adv-x="1124" d="M332 1634Q319 1660 313 1690T307 1753Q307 1810 327 1859T383 1945T467 2002T573 2023Q629 2023 677 2002T761 1945T817 1860T838 1753Q838 1689 813 1634H872L1126 0H705L653 403H469L414 0H-2L276 1634H332ZM573 1833Q542 1833 521 1809T500 1753Q500 1719 521 1695T573 1671Q588 1671 601 1677T624 1695T641 1721T647 1753Q647 1769 641 1783T625 1809T601 1826T573 1833ZM618 707Q609 769 602 823Q599 846 596 869T590 911T585 946T582 969Q575 1007 571 1044T565 1112Q562 1147 561 1180Q560 1148 558 1113Q556 1083 553 1045T543 969Q542 961 540 946T534 911T527 868T520 823Q511 770 502 707H618Z"/><glyph unicode="Æ" horiz-adv-x="1427" d="M1409 1634V1255H1034V999H1380V643H1034V371H1413V0H623V360H473L416 0H-2L338 1634H1409ZM623 1298Q616 1254 610 1215Q605 1182 600 1151T592 1106L516 700H623V1298Z"/><glyph unicode="Ç" horiz-adv-x="1096" d="M434 -10Q360 1 304 25T205 84T133 162T86 256Q69 303 58 363T40 496T30 650T27 821Q27 907 29 974T37 1098T50 1208T70 1319Q85 1398 128 1459T238 1563T391 1627T578 1649Q802 1649 920 1547T1059 1255Q1061 1231 1063 1195T1066 1121T1068 1047T1069 987H668Q667 1013 667 1041T665 1095T662 1146T657 1190Q652 1227 630 1248T569 1270Q529 1270 506 1247T477 1186Q465 1105 462 1011T459 829Q459 758 460 693T465 573T471 481T479 426Q490 381 513 366T571 350Q606 350 629 367T657 428Q661 456 663 487T667 547T669 597T670 631H1071Q1071 613 1071 581T1071 509T1068 426T1061 342Q1052 270 1024 210T948 104T831 28T672 -12V-41Q753 -41 801 -87T850 -221Q850 -277 817 -320T722 -386T570 -409T369 -381V-205Q402 -213 432 -213T486 -207T523 -187T537 -154Q537 -116 514 -95T434 -74V-10Z"/><glyph unicode="È" horiz-adv-x="946" d="M926 0H51V1634H922V1255H465V1001H895V643H465V371H926V0ZM686 1690H338L139 2030H539L686 1690Z"/><glyph unicode="É" horiz-adv-x="946" d="M926 0H51V1634H922V1255H465V1001H895V643H465V371H926V0ZM293 1692L440 2032H840L639 1692H293Z"/><glyph unicode="Ê" horiz-adv-x="946" d="M926 0H51V1634H922V1255H465V1001H895V643H465V371H926V0ZM850 1692H545L481 1810L418 1692H121L297 2030H672L850 1692Z"/><glyph unicode="Ë" horiz-adv-x="946" d="M926 0H51V1634H922V1255H465V1001H895V643H465V371H926V0ZM817 1690H530V1993H817V1690ZM422 1690H135V1993H422V1690Z"/><glyph unicode="Ì" horiz-adv-x="532" d="M481 0H53V1634H481V0ZM442 1692H94L-104 2032H295L442 1692Z"/><glyph unicode="Í" horiz-adv-x="532" d="M481 0H53V1634H481V0ZM70 1692L217 2032H616L416 1692H70Z"/><glyph unicode="Î" horiz-adv-x="532" d="M481 0H53V1634H481V0ZM629 1692H324L260 1810L197 1692H-100L76 2030H451L629 1692Z"/><glyph unicode="Ï" horiz-adv-x="532" d="M481 0H53V1634H481V0ZM604 1690H317V1993H604V1690ZM209 1690H-78V1993H209V1690Z"/><glyph unicode="Ð" horiz-adv-x="1102" d="M59 618H20V995H59V1634H586Q732 1634 827 1601T977 1493Q1007 1451 1025 1389T1054 1245T1069 1065T1073 852Q1073 694 1070 581T1057 387T1029 251T979 152Q953 116 921 88T847 40T752 10T631 0H59V618ZM477 995H563V618H475V311H578Q645 311 662 385Q665 401 667 437T671 520T674 618T675 716T676 800T676 854Q676 870 676 900T675 967T673 1043T669 1118T665 1180T659 1219Q647 1264 626 1280T569 1296H477V995Z"/><glyph unicode="Ñ" horiz-adv-x="1073" d="M1024 0H670L438 635V0H51V1634H401L633 987V1634H1024V0ZM563 1724Q545 1739 533 1751T512 1770T492 1782T469 1786Q449 1786 431 1767T410 1698H168Q170 1865 231 1953T397 2042Q447 2042 486 2029T561 1978Q575 1964 584 1956T600 1943T615 1937T631 1935Q657 1935 672 1958T690 2036H922Q922 1944 905 1878T857 1767T786 1702T700 1681Q657 1681 626 1689T563 1724Z"/><glyph unicode="Ò" horiz-adv-x="1116" d="M557 1651Q673 1651 761 1625T912 1552T1012 1441T1065 1298Q1070 1271 1075 1232T1083 1137T1089 1007T1092 836Q1092 669 1085 541T1053 315Q1029 223 989 159T888 55T746 -4T557 -23Q444 -23 360 -2T216 62T118 169T59 319Q35 417 31 542T27 821Q27 908 28 977T32 1100T39 1197T51 1274Q69 1355 102 1424T195 1543T342 1622T557 1651ZM561 332Q601 332 623 359T651 420Q657 453 661 491T667 577T671 683T672 815Q672 856 672 913T670 1026T665 1130T657 1200Q648 1247 628 1269T561 1292Q514 1292 494 1268T465 1198Q461 1177 458 1131T453 1028T450 914T449 815Q449 666 454 571T469 418Q475 383 496 358T561 332ZM764 1690H416L217 2030H616L764 1690Z"/><glyph unicode="Ó" horiz-adv-x="1116" d="M557 1651Q673 1651 761 1625T912 1552T1012 1441T1065 1298Q1070 1271 1075 1232T1083 1137T1089 1007T1092 836Q1092 669 1085 541T1053 315Q1029 223 989 159T888 55T746 -4T557 -23Q444 -23 360 -2T216 62T118 169T59 319Q35 417 31 542T27 821Q27 908 28 977T32 1100T39 1197T51 1274Q69 1355 102 1424T195 1543T342 1622T557 1651ZM561 332Q601 332 623 359T651 420Q657 453 661 491T667 577T671 683T672 815Q672 856 672 913T670 1026T665 1130T657 1200Q648 1247 628 1269T561 1292Q514 1292 494 1268T465 1198Q461 1177 458 1131T453 1028T450 914T449 815Q449 666 454 571T469 418Q475 383 496 358T561 332ZM367 1690L514 2030H913L713 1690H367Z"/><glyph unicode="Ô" horiz-adv-x="1116" d="M557 1651Q673 1651 761 1625T912 1552T1012 1441T1065 1298Q1070 1271 1075 1232T1083 1137T1089 1007T1092 836Q1092 669 1085 541T1053 315Q1029 223 989 159T888 55T746 -4T557 -23Q444 -23 360 -2T216 62T118 169T59 319Q35 417 31 542T27 821Q27 908 28 977T32 1100T39 1197T51 1274Q69 1355 102 1424T195 1543T342 1622T557 1651ZM561 332Q601 332 623 359T651 420Q657 453 661 491T667 577T671 683T672 815Q672 856 672 913T670 1026T665 1130T657 1200Q648 1247 628 1269T561 1292Q514 1292 494 1268T465 1198Q461 1177 458 1131T453 1028T450 914T449 815Q449 666 454 571T469 418Q475 383 496 358T561 332ZM924 1692H618L555 1810L492 1692H195L371 2030H745L924 1692Z"/><glyph unicode="Õ" horiz-adv-x="1116" d="M557 1651Q673 1651 761 1625T912 1552T1012 1441T1065 1298Q1070 1271 1075 1232T1083 1137T1089 1007T1092 836Q1092 669 1085 541T1053 315Q1029 223 989 159T888 55T746 -4T557 -23Q444 -23 360 -2T216 62T118 169T59 319Q35 417 31 542T27 821Q27 908 28 977T32 1100T39 1197T51 1274Q69 1355 102 1424T195 1543T342 1622T557 1651ZM561 332Q601 332 623 359T651 420Q657 453 661 491T667 577T671 683T672 815Q672 856 672 913T670 1026T665 1130T657 1200Q648 1247 628 1269T561 1292Q514 1292 494 1268T465 1198Q461 1177 458 1131T453 1028T450 914T449 815Q449 666 454 571T469 418Q475 383 496 358T561 332ZM573 1724Q555 1739 543 1751T522 1770T502 1782T479 1786Q459 1786 441 1767T420 1698H178Q180 1865 241 1953T408 2042Q457 2042 496 2029T571 1978Q585 1964 594 1956T610 1943T625 1937T641 1935Q667 1935 682 1958T700 2036H932Q932 1944 915 1878T867 1767T796 1702T711 1681Q689 1681 671 1682T637 1689T605 1702T573 1724Z"/><glyph unicode="Ö" horiz-adv-x="1116" d="M557 1651Q673 1651 761 1625T912 1552T1012 1441T1065 1298Q1070 1271 1075 1232T1083 1137T1089 1007T1092 836Q1092 669 1085 541T1053 315Q1029 223 989 159T888 55T746 -4T557 -23Q444 -23 360 -2T216 62T118 169T59 319Q35 417 31 542T27 821Q27 908 28 977T32 1100T39 1197T51 1274Q69 1355 102 1424T195 1543T342 1622T557 1651ZM561 332Q601 332 623 359T651 420Q657 453 661 491T667 577T671 683T672 815Q672 856 672 913T670 1026T665 1130T657 1200Q648 1247 628 1269T561 1292Q514 1292 494 1268T465 1198Q461 1177 458 1131T453 1028T450 914T449 815Q449 666 454 571T469 418Q475 383 496 358T561 332ZM897 1692H610V1995H897V1692ZM502 1692H215V1995H502V1692Z"/><glyph unicode="×" horiz-adv-x="754" d="M711 891L567 748L711 600L522 406L379 549L236 406L45 602L190 748L45 891L236 1087L379 942L522 1087L711 891Z"/><glyph unicode="Ø" horiz-adv-x="1116" d="M211 63Q146 108 107 174T51 328Q39 393 33 520T27 821Q27 908 28 977T32 1100T39 1197T51 1274Q69 1355 102 1424T195 1543T342 1622T557 1651Q632 1651 696 1640T813 1608L834 1659H954L913 1552Q975 1504 1012 1440T1065 1298Q1070 1271 1075 1232T1083 1137T1089 1007T1092 836Q1092 653 1084 537T1063 354Q1043 250 1002 179T897 62T748 -3T557 -23Q486 -23 426 -14T315 12L272 -96H150L211 63ZM451 629L662 1176L660 1186Q659 1190 659 1194T659 1200Q651 1248 630 1270T561 1292Q514 1292 494 1268T465 1198Q461 1177 458 1131T453 1028T450 914T449 815Q449 761 449 715T451 629ZM670 965L465 434Q465 429 466 424Q467 419 467 415T469 406Q478 332 563 332Q603 332 624 352T651 408Q656 444 660 485T666 575T670 683T672 815Q672 844 672 883T670 965Z"/><glyph unicode="Ù" horiz-adv-x="1104" d="M1059 434Q1059 323 1024 239T923 97T764 11T557 -18Q447 -18 353 8T190 91T82 233T43 440V1634H457V436Q457 332 551 332Q596 332 619 357T643 434V1634H1059V434ZM760 1690H412L213 2030H612L760 1690Z"/><glyph unicode="Ú" horiz-adv-x="1104" d="M1059 434Q1059 323 1024 239T923 97T764 11T557 -18Q447 -18 353 8T190 91T82 233T43 440V1634H457V436Q457 332 551 332Q596 332 619 357T643 434V1634H1059V434ZM369 1692L516 2032H915L715 1692H369Z"/><glyph unicode="Û" horiz-adv-x="1104" d="M1059 434Q1059 323 1024 239T923 97T764 11T557 -18Q447 -18 353 8T190 91T82 233T43 440V1634H457V436Q457 332 551 332Q596 332 619 357T643 434V1634H1059V434ZM915 1692H610L547 1810L483 1692H186L362 2030H737L915 1692Z"/><glyph unicode="Ü" horiz-adv-x="1104" d="M1059 434Q1059 323 1024 239T923 97T764 11T557 -18Q447 -18 353 8T190 91T82 233T43 440V1634H457V436Q457 332 551 332Q596 332 619 357T643 434V1634H1059V434ZM889 1692H602V1995H889V1692ZM494 1692H207V1995H494V1692Z"/><glyph unicode="Ý" horiz-adv-x="1153" d="M1153 1634L778 625V0H356V614L0 1634H426Q463 1499 494 1385Q507 1336 519 1287T542 1196T559 1122T567 1073Q568 1089 575 1121T593 1196T618 1288T648 1386Q682 1500 727 1634H1153ZM381 1690L528 2030H928L727 1690H381Z"/><glyph unicode="Þ" horiz-adv-x="1110" d="M487 1634V1358H664Q781 1358 864 1323T995 1206Q1043 1147 1068 1052T1094 834Q1094 707 1069 612T991 457Q942 384 860 347T664 307Q649 306 619 306T557 306Q521 306 479 307V0H49V1634H487ZM664 811Q664 823 663 839T659 864Q657 901 652 925T637 962T614 981T582 987H477V641H575Q598 641 613 647T638 666T652 700T659 754Q661 763 662 780T664 811Z"/><glyph unicode="ß" horiz-adv-x="1481" d="M578 1346Q530 1346 514 1320T498 1247V0H111V803H8V1126H111V1303Q111 1378 145 1441T243 1549T397 1619T602 1645Q696 1645 775 1621T912 1553T1002 1448T1034 1313Q1034 1266 1024 1229T1000 1160T968 1101T936 1047T911 993T901 934Q901 899 912 874T940 830T977 800T1016 778Q1051 760 1097 743T1202 700Q1274 671 1323 635T1404 553T1450 453T1464 332Q1464 253 1439 188T1359 77T1221 6T1018 -20Q794 -20 684 44T557 242Q555 257 554 277T552 318T550 358T549 391H938Q938 385 938 371T938 340T939 303T942 268Q944 239 962 227T1012 215Q1046 215 1060 230T1075 289Q1075 318 1073 343T1060 389T1031 427T979 457Q933 474 893 491T825 522Q760 547 707 575T617 644T559 746T539 895Q539 963 555 1010T592 1097T628 1171T645 1251Q645 1298 631 1322T578 1346Z"/><glyph unicode="à" horiz-adv-x="961" d="M934 0H561Q559 18 558 35Q556 49 556 62T555 80Q512 30 444 10T299 -10Q255 -10 208 -1T121 33T53 104T20 223Q19 232 19 252T19 296T20 346T23 391Q28 452 52 503T122 595T240 662T412 702Q446 707 480 709T551 711Q551 732 551 755T547 795Q541 850 487 850Q461 850 446 840T424 803Q421 784 419 770T416 735H61Q59 775 63 821T82 913Q96 962 129 1005T215 1080T339 1130T500 1149Q606 1149 683 1127T812 1064T889 969T918 846Q919 813 919 773T920 691T920 606T918 524Q918 497 918 463T917 391T916 315T915 240Q915 203 915 162T918 86T924 27T934 0ZM553 487Q545 487 532 487T512 485Q497 483 475 477T434 453Q413 433 407 406T401 350Q401 312 420 292T473 272Q496 272 516 282T545 324Q551 347 552 373T553 426V487ZM707 1202H358L160 1542H559L707 1202Z"/><glyph unicode="á" horiz-adv-x="961" d="M934 0H561Q559 18 558 35Q556 49 556 62T555 80Q512 30 444 10T299 -10Q255 -10 208 -1T121 33T53 104T20 223Q19 232 19 252T19 296T20 346T23 391Q28 452 52 503T122 595T240 662T412 702Q446 707 480 709T551 711Q551 732 551 755T547 795Q541 850 487 850Q461 850 446 840T424 803Q421 784 419 770T416 735H61Q59 775 63 821T82 913Q96 962 129 1005T215 1080T339 1130T500 1149Q606 1149 683 1127T812 1064T889 969T918 846Q919 813 919 773T920 691T920 606T918 524Q918 497 918 463T917 391T916 315T915 240Q915 203 915 162T918 86T924 27T934 0ZM553 487Q545 487 532 487T512 485Q497 483 475 477T434 453Q413 433 407 406T401 350Q401 312 420 292T473 272Q496 272 516 282T545 324Q551 347 552 373T553 426V487ZM283 1202L430 1542H829L629 1202H283Z"/><glyph unicode="â" horiz-adv-x="961" d="M934 0H561Q559 18 558 35Q556 49 556 62T555 80Q512 30 444 10T299 -10Q255 -10 208 -1T121 33T53 104T20 223Q19 232 19 252T19 296T20 346T23 391Q28 452 52 503T122 595T240 662T412 702Q446 707 480 709T551 711Q551 732 551 755T547 795Q541 850 487 850Q461 850 446 840T424 803Q421 784 419 770T416 735H61Q59 775 63 821T82 913Q96 962 129 1005T215 1080T339 1130T500 1149Q606 1149 683 1127T812 1064T889 969T918 846Q919 813 919 773T920 691T920 606T918 524Q918 497 918 463T917 391T916 315T915 240Q915 203 915 162T918 86T924 27T934 0ZM553 487Q545 487 532 487T512 485Q497 483 475 477T434 453Q413 433 407 406T401 350Q401 312 420 292T473 272Q496 272 516 282T545 324Q551 347 552 373T553 426V487ZM866 1204H561L498 1323L434 1204H137L313 1542H688L866 1204Z"/><glyph unicode="ã" horiz-adv-x="961" d="M934 0H561Q559 18 558 35Q556 49 556 62T555 80Q512 30 444 10T299 -10Q255 -10 208 -1T121 33T53 104T20 223Q19 232 19 252T19 296T20 346T23 391Q28 452 52 503T122 595T240 662T412 702Q446 707 480 709T551 711Q551 732 551 755T547 795Q541 850 487 850Q461 850 446 840T424 803Q421 784 419 770T416 735H61Q59 775 63 821T82 913Q96 962 129 1005T215 1080T339 1130T500 1149Q606 1149 683 1127T812 1064T889 969T918 846Q919 813 919 773T920 691T920 606T918 524Q918 497 918 463T917 391T916 315T915 240Q915 203 915 162T918 86T924 27T934 0ZM553 487Q545 487 532 487T512 485Q497 483 475 477T434 453Q413 433 407 406T401 350Q401 312 420 292T473 272Q496 272 516 282T545 324Q551 347 552 373T553 426V487ZM498 1235Q480 1250 468 1261T446 1280T426 1292T403 1296Q383 1296 365 1277T344 1208H102Q104 1376 165 1464T332 1552Q381 1552 421 1539T496 1489Q509 1475 518 1467T535 1454T549 1448T565 1446Q591 1446 607 1469T625 1546H856Q856 1455 839 1388T791 1278T721 1213T635 1192Q592 1192 561 1199T498 1235Z"/><glyph unicode="ä" horiz-adv-x="961" d="M934 0H561Q559 18 558 35Q556 49 556 62T555 80Q512 30 444 10T299 -10Q255 -10 208 -1T121 33T53 104T20 223Q19 232 19 252T19 296T20 346T23 391Q28 452 52 503T122 595T240 662T412 702Q446 707 480 709T551 711Q551 732 551 755T547 795Q541 850 487 850Q461 850 446 840T424 803Q421 784 419 770T416 735H61Q59 775 63 821T82 913Q96 962 129 1005T215 1080T339 1130T500 1149Q606 1149 683 1127T812 1064T889 969T918 846Q919 813 919 773T920 691T920 606T918 524Q918 497 918 463T917 391T916 315T915 240Q915 203 915 162T918 86T924 27T934 0ZM553 487Q545 487 532 487T512 485Q497 483 475 477T434 453Q413 433 407 406T401 350Q401 312 420 292T473 272Q496 272 516 282T545 324Q551 347 552 373T553 426V487ZM836 1202H549V1505H836V1202ZM440 1202H154V1505H440V1202Z"/><glyph unicode="å" horiz-adv-x="961" d="M934 0H561Q559 18 558 35Q556 49 556 62T555 80Q512 30 444 10T299 -10Q255 -10 208 -1T121 33T53 104T20 223Q19 232 19 252T19 296T20 346T23 391Q28 452 52 503T122 595T240 662T412 702Q446 707 480 709T551 711Q551 732 551 755T547 795Q541 850 487 850Q461 850 446 840T424 803Q421 784 419 770T416 735H61Q59 775 63 821T82 913Q96 962 129 1005T215 1080T339 1130T500 1149Q606 1149 683 1127T812 1064T889 969T918 846Q919 813 919 773T920 691T920 606T918 524Q918 497 918 463T917 391T916 315T915 240Q915 203 915 162T918 86T924 27T934 0ZM553 487Q545 487 532 487T512 485Q497 483 475 477T434 453Q413 433 407 406T401 350Q401 312 420 292T473 272Q496 272 516 282T545 324Q551 347 552 373T553 426V487ZM498 1667Q549 1667 592 1648T668 1596T718 1518T737 1421Q737 1369 719 1324T668 1246T593 1193T498 1174Q446 1174 402 1193T326 1245T275 1324T256 1421Q256 1473 274 1518T325 1596T402 1648T498 1667ZM498 1493Q470 1493 450 1472T430 1421Q430 1390 450 1369T498 1348Q524 1348 544 1369T565 1421Q565 1436 560 1449T545 1471T523 1487T498 1493Z"/><glyph unicode="æ" horiz-adv-x="1464" d="M299 -10Q255 -10 208 -1T121 33T53 104T20 223Q19 232 19 252T19 296T20 346T23 391Q28 452 52 503T122 595T240 662T412 702Q446 707 480 709T551 711Q551 732 551 755T547 795Q541 850 487 850Q461 850 446 840T424 803Q421 784 419 770T416 735H61Q59 775 63 821T82 913Q96 962 129 1005T210 1080T321 1130T457 1149Q517 1149 564 1139T647 1112T706 1071T741 1022Q753 1046 775 1067T830 1106T904 1133T997 1143Q1085 1143 1150 1122T1263 1066T1341 989T1389 903Q1405 862 1414 809T1428 695T1434 570T1434 444H909Q909 416 909 398T909 367T911 345T915 326Q923 292 946 280T995 268Q1018 268 1039 280T1069 319Q1074 338 1075 358T1077 389H1430Q1429 378 1426 353T1416 296T1398 229T1368 162Q1348 126 1318 94T1242 37T1137 -1T995 -16Q853 -16 756 24T625 145Q599 100 560 70T475 23T384 -2T299 -10ZM1075 682Q1075 725 1073 754T1065 797Q1049 850 991 850Q963 850 943 837T915 797Q910 783 907 754T903 682H1075ZM553 487Q545 487 532 487T512 485Q497 483 475 477T434 453Q413 433 407 406T401 350Q401 312 420 292T473 272Q496 272 516 282T545 324Q551 347 552 373T553 426V487Z"/><glyph unicode="ç" horiz-adv-x="930" d="M358 -6Q248 12 184 61T84 180Q58 233 42 331T25 565Q25 667 36 755T78 924Q97 973 133 1013T220 1082T335 1127T477 1143Q574 1143 641 1125T754 1077T828 1007T874 924Q882 906 888 875T899 804T906 717T909 621H557Q557 675 557 711T551 770Q546 795 531 815T481 836Q449 836 432 819T408 770Q405 752 403 727T399 674T396 617T395 563Q395 538 395 510T397 454T399 402T403 360Q408 326 425 308T477 289Q509 289 528 305T553 362Q556 385 558 420T561 500H905Q905 390 898 310T858 170Q824 105 762 59T596 -6V-39Q678 -39 726 -85T774 -219Q774 -275 741 -318T646 -384T494 -407T293 -379V-203Q326 -211 356 -211T410 -205T447 -185T461 -152Q461 -114 438 -93T358 -72V-6Z"/><glyph unicode="è" horiz-adv-x="940" d="M915 389Q914 378 911 353T902 296T884 229T854 162Q834 126 804 94T728 37T623 -1T481 -16Q339 -16 248 27T111 145Q70 211 47 311T23 563Q23 630 27 684T39 785T61 870T94 946Q114 983 144 1018T221 1081T332 1126T483 1143Q571 1143 636 1122T749 1066T827 989T874 903Q890 862 900 809T914 695T920 570T920 444H395Q395 416 395 398T395 367T397 345T401 326Q409 292 432 280T481 268Q504 268 525 280T555 319Q560 338 561 358T563 389H915ZM561 682Q561 725 559 754T551 797Q535 850 477 850Q449 850 429 837T401 797Q396 783 393 754T389 682H561ZM662 1202H313L115 1542H514L662 1202Z"/><glyph unicode="é" horiz-adv-x="940" d="M915 389Q914 378 911 353T902 296T884 229T854 162Q834 126 804 94T728 37T623 -1T481 -16Q339 -16 248 27T111 145Q70 211 47 311T23 563Q23 630 27 684T39 785T61 870T94 946Q114 983 144 1018T221 1081T332 1126T483 1143Q571 1143 636 1122T749 1066T827 989T874 903Q890 862 900 809T914 695T920 570T920 444H395Q395 416 395 398T395 367T397 345T401 326Q409 292 432 280T481 268Q504 268 525 280T555 319Q560 338 561 358T563 389H915ZM561 682Q561 725 559 754T551 797Q535 850 477 850Q449 850 429 837T401 797Q396 783 393 754T389 682H561ZM281 1202L428 1542H827L627 1202H281Z"/><glyph unicode="ê" horiz-adv-x="940" d="M915 389Q914 378 911 353T902 296T884 229T854 162Q834 126 804 94T728 37T623 -1T481 -16Q339 -16 248 27T111 145Q70 211 47 311T23 563Q23 630 27 684T39 785T61 870T94 946Q114 983 144 1018T221 1081T332 1126T483 1143Q571 1143 636 1122T749 1066T827 989T874 903Q890 862 900 809T914 695T920 570T920 444H395Q395 416 395 398T395 367T397 345T401 326Q409 292 432 280T481 268Q504 268 525 280T555 319Q560 338 561 358T563 389H915ZM561 682Q561 725 559 754T551 797Q535 850 477 850Q449 850 429 837T401 797Q396 783 393 754T389 682H561ZM848 1204H543L479 1323L416 1204H119L295 1542H670L848 1204Z"/><glyph unicode="ë" horiz-adv-x="940" d="M915 389Q914 378 911 353T902 296T884 229T854 162Q834 126 804 94T728 37T623 -1T481 -16Q339 -16 248 27T111 145Q70 211 47 311T23 563Q23 630 27 684T39 785T61 870T94 946Q114 983 144 1018T221 1081T332 1126T483 1143Q571 1143 636 1122T749 1066T827 989T874 903Q890 862 900 809T914 695T920 570T920 444H395Q395 416 395 398T395 367T397 345T401 326Q409 292 432 280T481 268Q504 268 525 280T555 319Q560 338 561 358T563 389H915ZM561 682Q561 725 559 754T551 797Q535 850 477 850Q449 850 429 837T401 797Q396 783 393 754T389 682H561ZM819 1202H532V1505H819V1202ZM424 1202H137V1505H424V1202Z"/><glyph unicode="ì" horiz-adv-x="477" d="M442 0H59Q50 0 48 15T45 78V1126H434V76Q434 31 435 17T442 0ZM430 1202H82L-117 1542H283L430 1202Z"/><glyph unicode="í" horiz-adv-x="477" d="M442 0H59Q50 0 48 15T45 78V1126H434V76Q434 31 435 17T442 0ZM51 1202L199 1542H598L397 1202H51Z"/><glyph unicode="î" horiz-adv-x="477" d="M442 0H59Q50 0 48 15T45 78V1126H434V76Q434 31 435 17T442 0ZM604 1204H299L236 1323L172 1204H-125L51 1542H426L604 1204Z"/><glyph unicode="ï" horiz-adv-x="477" d="M442 0H59Q50 0 48 15T45 78V1126H434V76Q434 31 435 17T442 0ZM582 1202H295V1505H582V1202ZM186 1202H-100V1505H186V1202Z"/><glyph unicode="ð" horiz-adv-x="999" d="M582 1014Q565 1009 553 1009T530 1008Q502 1008 476 1015T426 1039T383 1083T348 1153L461 1210Q464 1200 469 1190T483 1170T501 1155T526 1149Q534 1149 547 1150T580 1157Q578 1194 578 1224T578 1268Q574 1323 554 1345T496 1368Q477 1368 464 1366T441 1357T427 1338T420 1305Q418 1295 418 1278T418 1247H53Q53 1258 53 1275T55 1312T58 1352T63 1391Q72 1439 100 1486T180 1571T307 1632T487 1655Q586 1655 661 1631T789 1564T876 1463T924 1339Q929 1321 932 1300T940 1255Q954 1262 966 1264T989 1266Q1048 1266 1092 1232T1163 1137L1063 1061Q1059 1071 1053 1082T1039 1102T1019 1118T993 1124Q984 1124 976 1122T958 1116Q966 1051 971 978T977 842Q977 804 976 752T973 641T965 520T953 401T936 297T911 219Q859 104 756 43T487 -18Q389 -18 318 -1T197 49T114 126T61 225Q50 254 43 298T31 393T27 499T29 605T38 700T55 774Q86 861 167 911T373 961Q406 961 432 958T483 947T531 927T584 899Q584 904 584 915T584 942T584 976T582 1014ZM424 350Q429 313 445 298T496 283Q534 283 554 299T578 352Q579 367 581 400T585 472T588 549T590 614Q585 624 579 634T563 654T540 668T508 674Q466 674 448 659T426 616Q425 606 424 585T423 538T422 484T422 429T422 382T424 350Z"/><glyph unicode="ñ" d="M934 0H557Q555 1 554 5T551 32T549 99T548 226T547 434T547 743Q547 785 534 804T489 823Q457 823 440 800T422 725V0H43V1126H410V1016Q434 1073 498 1108T653 1143Q723 1143 774 1122T858 1062T908 967T924 840Q924 632 924 489T924 253T926 108T928 33T930 5T934 0ZM492 1235Q474 1250 462 1261T440 1280T420 1292T397 1296Q377 1296 359 1277T338 1208H96Q98 1376 159 1464T326 1552Q375 1552 414 1539T489 1489Q503 1475 512 1467T528 1454T543 1448T559 1446Q585 1446 600 1469T618 1546H850Q850 1455 833 1388T785 1278T715 1213T629 1192Q607 1192 589 1193T555 1199T524 1212T492 1235Z"/><glyph unicode="ò" horiz-adv-x="963" d="M938 567Q938 481 930 402T903 266Q859 135 754 61T477 -14Q397 -14 329 3T206 55T113 144T55 272Q40 332 32 406T23 567Q23 609 25 652T33 737T45 816T63 883Q82 940 119 988T209 1070T331 1124T483 1143Q823 1143 903 868Q923 802 930 728T938 567ZM569 561Q569 586 569 619T567 684T563 741T559 778Q551 807 535 822T483 838Q451 838 433 821T408 776Q403 755 401 729T397 674T395 616T395 561Q395 535 395 505T397 445T400 391T406 350Q411 321 430 304T481 287Q515 287 534 304T559 350Q562 365 564 390T567 445T568 504T569 561ZM682 1202H334L135 1542H535L682 1202Z"/><glyph unicode="ó" horiz-adv-x="963" d="M938 567Q938 481 930 402T903 266Q859 135 754 61T477 -14Q397 -14 329 3T206 55T113 144T55 272Q40 332 32 406T23 567Q23 609 25 652T33 737T45 816T63 883Q82 940 119 988T209 1070T331 1124T483 1143Q823 1143 903 868Q923 802 930 728T938 567ZM569 561Q569 586 569 619T567 684T563 741T559 778Q551 807 535 822T483 838Q451 838 433 821T408 776Q403 755 401 729T397 674T395 616T395 561Q395 535 395 505T397 445T400 391T406 350Q411 321 430 304T481 287Q515 287 534 304T559 350Q562 365 564 390T567 445T568 504T569 561ZM289 1202L436 1542H836L635 1202H289Z"/><glyph unicode="ô" horiz-adv-x="963" d="M938 567Q938 481 930 402T903 266Q859 135 754 61T477 -14Q397 -14 329 3T206 55T113 144T55 272Q40 332 32 406T23 567Q23 609 25 652T33 737T45 816T63 883Q82 940 119 988T209 1070T331 1124T483 1143Q823 1143 903 868Q923 802 930 728T938 567ZM569 561Q569 586 569 619T567 684T563 741T559 778Q551 807 535 822T483 838Q451 838 433 821T408 776Q403 755 401 729T397 674T395 616T395 561Q395 535 395 505T397 445T400 391T406 350Q411 321 430 304T481 287Q515 287 534 304T559 350Q562 365 564 390T567 445T568 504T569 561ZM848 1204H543L479 1323L416 1204H119L295 1542H670L848 1204Z"/><glyph unicode="õ" horiz-adv-x="963" d="M938 567Q938 481 930 402T903 266Q859 135 754 61T477 -14Q397 -14 329 3T206 55T113 144T55 272Q40 332 32 406T23 567Q23 609 25 652T33 737T45 816T63 883Q82 940 119 988T209 1070T331 1124T483 1143Q823 1143 903 868Q923 802 930 728T938 567ZM569 561Q569 586 569 619T567 684T563 741T559 778Q551 807 535 822T483 838Q451 838 433 821T408 776Q403 755 401 729T397 674T395 616T395 561Q395 535 395 505T397 445T400 391T406 350Q411 321 430 304T481 287Q515 287 534 304T559 350Q562 365 564 390T567 445T568 504T569 561ZM487 1235Q469 1250 457 1261T436 1280T416 1292T393 1296Q373 1296 355 1277T334 1208H92Q94 1376 155 1464T322 1552Q371 1552 410 1539T485 1489Q499 1475 508 1467T524 1454T539 1448T555 1446Q581 1446 596 1469T614 1546H846Q846 1455 829 1388T781 1278T710 1213T625 1192Q603 1192 585 1193T551 1199T519 1212T487 1235Z"/><glyph unicode="ö" horiz-adv-x="963" d="M938 567Q938 481 930 402T903 266Q859 135 754 61T477 -14Q397 -14 329 3T206 55T113 144T55 272Q40 332 32 406T23 567Q23 609 25 652T33 737T45 816T63 883Q82 940 119 988T209 1070T331 1124T483 1143Q823 1143 903 868Q923 802 930 728T938 567ZM569 561Q569 586 569 619T567 684T563 741T559 778Q551 807 535 822T483 838Q451 838 433 821T408 776Q403 755 401 729T397 674T395 616T395 561Q395 535 395 505T397 445T400 391T406 350Q411 321 430 304T481 287Q515 287 534 304T559 350Q562 365 564 390T567 445T568 504T569 561ZM823 1202H537V1505H823V1202ZM428 1202H141V1505H428V1202Z"/><glyph unicode="÷" horiz-adv-x="1536" d="M208 684V896H1328V684H208ZM768 228Q704 228 656 276T608 388Q608 452 650 500T768 548Q840 548 884 500T928 388Q928 324 880 276T768 228ZM768 1028Q704 1028 656 1076T608 1188Q608 1252 650 1300T768 1348Q840 1348 884 1300T928 1188Q928 1124 880 1076T768 1028Z"/><glyph unicode="ø" horiz-adv-x="963" d="M207 53Q151 90 113 144T55 272Q40 332 32 406T23 567Q23 609 25 652T33 737T45 816T63 883Q82 940 119 988T209 1070T331 1124T483 1143Q542 1143 592 1135T686 1110L717 1180H801L754 1077Q864 1006 903 868Q923 802 930 728T938 567Q938 481 930 402T903 266Q859 135 754 61T477 -14Q420 -14 370 -6T274 20L238 -59H156L207 53ZM397 444L553 795Q545 816 530 827T483 838Q451 838 433 821T408 776Q403 755 401 729T397 674T395 616T395 561Q395 535 396 504T397 444ZM565 690L559 676Q552 661 541 637T516 581T487 516Q452 439 408 340Q416 315 434 301T481 287Q515 287 534 304T559 350Q562 365 564 390T567 445T568 504T569 561Q569 587 568 622T565 690Z"/><glyph unicode="ù" horiz-adv-x="961" d="M926 0H559L553 68Q511 27 460 10T338 -8Q271 -8 216 10T122 70T61 179T39 346Q39 434 39 526T39 705T38 868T37 1001T36 1092T35 1126H416V371Q416 323 430 306T477 289Q509 289 526 309T543 381V1126H920V133Q920 112 920 91T922 52T924 20T926 0ZM700 1202H352L154 1542H553L700 1202Z"/><glyph unicode="ú" horiz-adv-x="961" d="M926 0H559L553 68Q511 27 460 10T338 -8Q271 -8 216 10T122 70T61 179T39 346Q39 434 39 526T39 705T38 868T37 1001T36 1092T35 1126H416V371Q416 323 430 306T477 289Q509 289 526 309T543 381V1126H920V133Q920 112 920 91T922 52T924 20T926 0ZM287 1202L434 1542H834L633 1202H287Z"/><glyph unicode="û" horiz-adv-x="961" d="M926 0H559L553 68Q511 27 460 10T338 -8Q271 -8 216 10T122 70T61 179T39 346Q39 434 39 526T39 705T38 868T37 1001T36 1092T35 1126H416V371Q416 323 430 306T477 289Q509 289 526 309T543 381V1126H920V133Q920 112 920 91T922 52T924 20T926 0ZM854 1204H549L485 1323L422 1204H125L301 1542H676L854 1204Z"/><glyph unicode="ü" horiz-adv-x="961" d="M926 0H559L553 68Q511 27 460 10T338 -8Q271 -8 216 10T122 70T61 179T39 346Q39 434 39 526T39 705T38 868T37 1001T36 1092T35 1126H416V371Q416 323 430 306T477 289Q509 289 526 309T543 381V1126H920V133Q920 112 920 91T922 52T924 20T926 0ZM825 1202H539V1505H825V1202ZM430 1202H143V1505H430V1202Z"/><glyph unicode="ý" horiz-adv-x="1001" d="M999 1126L598 -334H219L319 6L2 1126H387Q388 1117 393 1085T406 1007T425 904T446 789T467 674T485 572T498 497T504 461Q505 467 510 496T522 571T539 671T558 785T577 900T595 1003T608 1083T614 1126H999ZM303 1202L451 1542H850L649 1202H303Z"/><glyph unicode="þ" horiz-adv-x="985" d="M965 578Q965 469 955 376T924 221Q890 115 816 57T625 -2Q547 -2 498 14T416 57V-334H43V1636H412V1042Q438 1090 496 1116T641 1143Q744 1143 809 1102T909 973Q937 905 951 805T965 578ZM582 571Q582 599 581 631T577 692T571 746T565 784Q559 806 545 821T498 836Q466 836 449 819T426 780Q420 732 416 680T412 571Q412 490 415 431T424 338Q429 316 446 302T496 287Q530 287 546 301T569 344Q571 358 573 384T578 441T581 507T582 571Z"/><glyph unicode="ÿ" horiz-adv-x="1001" d="M999 1126L598 -334H219L319 6L2 1126H387Q388 1117 393 1085T406 1007T425 904T446 789T467 674T485 572T498 497T504 461Q505 467 510 496T522 571T539 671T558 785T577 900T595 1003T608 1083T614 1126H999ZM848 1202H561V1505H848V1202ZM453 1202H166V1505H453V1202Z"/><glyph unicode="ı" horiz-adv-x="477" d="M442 0H59Q50 0 48 15T45 78V1126H434V76Q434 31 435 17T442 0Z"/><glyph unicode="Ł" horiz-adv-x="956" d="M477 659V375H940V0H51V549L12 539V743L51 756V1634H477V866L709 928V721L477 659Z"/><glyph unicode="ł" horiz-adv-x="518" d="M451 662V78Q451 41 454 23T463 0Q356 -1 272 -1Q236 -1 202 -1T142 -1T99 -1T82 0Q74 5 72 29T70 88V539L6 520V731L70 752V1536Q70 1564 68 1593T61 1634H442Q444 1631 447 1613T451 1565V874L514 895V684L451 662Z"/><glyph unicode="Œ" horiz-adv-x="1540" d="M743 1634H1524V1255H1075V1001H1495V643H1075V371H1526V0H727Q698 -7 669 -12Q643 -17 614 -20T555 -23Q440 -23 353 1T203 71T103 183T51 334Q46 363 42 420T35 547T29 688T27 821Q27 881 28 950T32 1082T39 1196T51 1268Q66 1350 100 1420T192 1541T338 1622T549 1651Q595 1651 631 1648T692 1642Q721 1638 743 1634ZM561 332Q607 332 624 350T647 403Q649 416 651 444T656 509T659 588T662 672T663 752T664 817Q664 843 664 877T664 950T663 1028T661 1101T659 1161T655 1200Q649 1245 629 1268T561 1292Q513 1292 491 1269T463 1194Q460 1173 458 1126T453 1024T450 912T449 815Q449 774 450 715T453 596T458 486T467 414Q476 373 496 353T561 332Z"/><glyph unicode="œ" horiz-adv-x="1475" d="M461 -14Q366 -14 296 10T178 75T100 166T55 272Q50 294 44 326T34 398T26 481T23 567Q23 609 26 656T35 748T48 827T63 883Q81 928 111 974T191 1058T312 1119T483 1143Q533 1143 574 1135T647 1113T705 1082T748 1047Q762 1065 785 1082T841 1113T916 1135T1012 1143Q1099 1143 1165 1121T1280 1064T1358 987T1405 903Q1419 868 1428 817T1442 705T1449 579T1450 451H926Q926 436 926 418T928 382T930 350T934 328Q940 294 962 281T1010 268Q1034 268 1054 280T1081 322Q1084 326 1086 335T1090 355T1092 375T1094 389H1450Q1448 378 1444 353T1432 296T1411 228T1382 162Q1362 126 1332 94T1258 37T1157 -1T1028 -16Q983 -16 938 -8T853 14T784 48T741 94Q726 71 699 52T635 18T554 -5T461 -14ZM1094 668Q1094 675 1094 694T1092 735T1088 775T1083 801Q1078 824 1058 837T1008 850Q979 850 959 837T932 801Q930 795 928 776T924 735T921 694T920 668H1094ZM569 561Q569 586 569 619T567 684T563 741T559 778Q551 807 534 822T481 838Q449 838 433 821T408 776Q405 764 403 738T399 682T396 619T395 561Q395 535 395 505T397 445T400 391T406 350Q411 321 430 304T481 287Q515 287 534 304T559 350Q562 365 564 390T567 445T568 504T569 561Z"/><glyph unicode="Š" horiz-adv-x="1030" d="M1010 432Q1010 324 978 239T884 96T728 8T514 -23Q285 -23 161 66T23 317Q20 342 19 368T18 418T18 460T18 487H414Q414 473 415 443T420 377Q423 342 446 325T512 307Q557 307 577 334T598 410Q598 443 591 469T565 520T516 571T440 629Q431 635 410 650T362 685T309 723T264 756Q206 797 160 838T82 932T33 1052T16 1214Q16 1316 50 1397T149 1536T306 1623T512 1653Q630 1653 715 1624T858 1543T946 1425T989 1282Q991 1264 993 1240T996 1193T998 1149T999 1120H602Q602 1127 602 1145T601 1182T600 1217T598 1235Q593 1269 574 1288T512 1307Q469 1307 445 1286T420 1221Q420 1185 431 1159T463 1108T514 1061T584 1008Q598 998 623 979T675 940T725 902T760 877Q818 833 864 790T943 696T992 581T1010 432ZM147 2044H451L516 1923L578 2044H877L698 1704H324L147 2044Z"/><glyph unicode="š" horiz-adv-x="885" d="M864 317Q864 237 838 175T759 69T631 3T455 -20Q254 -20 147 45T23 233Q20 248 19 266T16 304T15 340T16 369H367Q367 362 368 343T371 305Q377 260 440 260Q504 260 504 317Q504 351 485 372T410 414Q398 418 378 425T334 440T289 456T254 469Q192 490 149 521T77 596T36 695T23 823Q23 893 49 952T125 1054T251 1121T426 1145Q522 1145 592 1129T710 1082T786 1011T825 920Q831 896 834 877T839 838T841 799T842 754H496Q496 757 496 764T495 779T494 795T492 805Q490 820 478 833T434 846Q403 846 387 833T371 795Q371 769 387 756T444 729Q458 724 485 715T541 695T595 675T633 662Q754 617 809 536T864 317ZM70 1556H373L438 1436L500 1556H799L621 1217H246L70 1556Z"/><glyph unicode="Ÿ" horiz-adv-x="1153" d="M1153 1634L778 625V0H356V614L0 1634H426Q463 1499 494 1385Q507 1336 519 1287T542 1196T559 1122T567 1073Q568 1089 575 1121T593 1196T618 1288T648 1386Q682 1500 727 1634H1153ZM913 1692H627V1995H913V1692ZM518 1692H231V1995H518V1692Z"/><glyph unicode="Ž" horiz-adv-x="1001" d="M989 0H16V344L494 1253H55V1634H981V1288L496 373H989V0ZM133 2044H436L502 1923L563 2044H862L684 1704H309L133 2044Z"/><glyph unicode="ž" horiz-adv-x="854" d="M834 0H23V307L397 807H37V1126H827V819L451 319H834V0ZM59 1556H362L428 1436L489 1556H788L610 1217H236L59 1556Z"/><glyph unicode="ƒ" horiz-adv-x="756" d="M494 -68Q487 -137 464 -196T397 -298T285 -366T121 -391Q83 -391 57 -391T12 -389T-23 -387T-53 -385V-86Q-28 -88 -8 -88T31 -88Q49 -88 63 -81T88 -62T105 -36T113 -8L117 26Q120 60 125 116T136 243T149 389T163 536T175 667T183 764T188 807H90V1135H219L238 1329Q244 1396 267 1454T335 1555T449 1622T618 1647Q655 1647 680 1646T725 1644T760 1641T791 1638V1346Q766 1348 743 1349T700 1350Q660 1350 639 1326T614 1274L600 1128H727V807H573Q573 804 569 766T560 666T547 526T533 367T518 209T506 70T498 -29T494 -68Z"/><glyph unicode="ˆ" horiz-adv-x="901" d="M817 1204H512L449 1323L385 1204H88L264 1542H639L817 1204Z"/><glyph unicode="ˇ" horiz-adv-x="901" d="M84 1556H387L453 1436L514 1556H813L635 1217H260L84 1556Z"/><glyph unicode="˘" horiz-adv-x="901" d="M838 1513Q838 1444 812 1386T737 1285T616 1218T453 1194Q361 1194 290 1218T168 1284T92 1385T66 1513H369Q369 1478 388 1453T453 1427Q496 1427 516 1451T537 1513H838Z"/><glyph unicode="˙" horiz-adv-x="901" d="M600 1204H303V1518H600V1204Z"/><glyph unicode="˚" horiz-adv-x="901" d="M453 1667Q504 1667 547 1648T623 1596T673 1518T692 1421Q692 1369 674 1324T623 1246T548 1193T453 1174Q401 1174 357 1193T281 1245T230 1324T211 1421Q211 1473 229 1518T280 1596T357 1648T453 1667ZM453 1493Q425 1493 405 1472T385 1421Q385 1390 405 1369T453 1348Q479 1348 499 1369T520 1421Q520 1436 515 1449T500 1471T478 1487T453 1493Z"/><glyph unicode="˛" horiz-adv-x="1020" d="M508 -195Q508 -218 536 -232T608 -250V-397Q507 -394 436 -380T319 -340T252 -278T231 -197Q231 -158 247 -123T300 -62T400 -19T555 0L567 -135Q508 -147 508 -195Z"/><glyph unicode="˜" horiz-adv-x="901" d="M457 1235Q439 1250 427 1261T405 1280T385 1292T362 1296Q342 1296 324 1277T303 1208H61Q63 1376 124 1464T291 1552Q340 1552 380 1539T455 1489Q469 1475 478 1467T494 1454T508 1448T524 1446Q550 1446 566 1469T584 1546H815Q815 1455 798 1388T750 1278T680 1213T594 1192Q551 1192 520 1199T457 1235Z"/><glyph unicode="˝" horiz-adv-x="901" d="M487 1202L594 1542H930L770 1202H487ZM104 1202L211 1542H547L387 1202H104Z"/><glyph unicode="̄" horiz-adv-x="901" d="M793 1227H111V1468H793V1227Z"/><glyph unicode="Δ" horiz-adv-x="1536" d="M76 0L652 1536H884L1456 0H76ZM352 148H1164L752 1256L352 148Z"/><glyph unicode="Ω" horiz-adv-x="1664" d="M832 1376Q644 1376 510 1234T376 836Q376 592 464 432T724 180V0H88V196H536Q416 240 304 406T192 848Q192 1112 358 1330T832 1548Q1140 1548 1306 1338T1472 848Q1472 572 1360 406T1128 196H1576V0H940V180Q1112 272 1200 432T1288 836Q1288 1044 1162 1210T832 1376Z"/><glyph unicode="μ" horiz-adv-x="1408" d="M252 -424Q196 -424 168 -392T140 -280Q140 -200 144 -106T156 100Q164 200 168 256T172 328Q176 348 176 356V1176H368V320Q368 228 450 176T628 124Q760 124 858 190T1008 380V1176H1200V308L1220 0H1056L1020 176Q952 68 836 14T572 -40Q520 -40 444 -14T324 60Q324 -28 352 -112T380 -264Q380 -424 252 -424Z"/><glyph unicode="π" horiz-adv-x="1408" d="M296 0V1028H12V1176H1316V1028H996V344Q996 228 1042 184T1152 140Q1200 140 1232 142T1296 156V28Q1248 4 1206 -6T1088 -16Q960 -16 886 64T812 336V1028H484V0H296Z"/><glyph unicode="–" horiz-adv-x="637" d="M608 573H27V936H608V573Z"/><glyph unicode="—" horiz-adv-x="948" d="M848 573H100V936H848V573Z"/><glyph unicode="‘" horiz-adv-x="442" d="M412 1376V954H35V1384L264 1649L426 1520L334 1384L340 1376H412Z"/><glyph unicode="’" horiz-adv-x="442" d="M37 1214V1636H412V1206L184 942L20 1071L113 1208L106 1214H37Z"/><glyph unicode="‚" horiz-adv-x="442" d="M37 0V422H412V-8L184 -272L20 -143L113 -6L106 0H37Z"/><glyph unicode="“" horiz-adv-x="864" d="M827 1370V954H459V1380L686 1649L848 1520L752 1378L758 1370H827ZM406 1370V954H35V1380L266 1649L426 1520L330 1378L334 1370H406Z"/><glyph unicode="”" horiz-adv-x="864" d="M461 1219V1636H831V1210L602 942L440 1071L537 1214L530 1219H461ZM41 1219V1636H410V1210L180 942L18 1071L115 1214L109 1219H41Z"/><glyph unicode="„" horiz-adv-x="864" d="M461 0V418H831V-8L602 -279L440 -150L537 -6L530 0H461ZM41 0V418H410V-8L180 -279L18 -150L115 -6L109 0H41Z"/><glyph unicode="†" horiz-adv-x="674" d="M657 791H526V-12L336 -254L147 -12V791H16V1063H147V1624H526Q527 1512 527 1407Q527 1362 527 1315T527 1223T527 1136T526 1063H657V791Z"/><glyph unicode="‡" horiz-adv-x="674" d="M526 766H651V504H528V-12L338 -254L152 -12V504H25V766H154V911H25V1171H152V1624H528V1171H651V911H526V766Z"/><glyph unicode="•" horiz-adv-x="889" d="M449 367Q374 367 308 397T193 478T115 597T86 743Q86 821 114 890T192 1010T308 1090T449 1120Q523 1120 588 1091T703 1010T780 890T809 743Q809 666 781 598T703 478T589 397T449 367Z"/><glyph unicode="…" horiz-adv-x="1477" d="M1432 0H1030V453H1432V0ZM940 0H539V453H940V0ZM449 0H45V453H449V0Z"/><glyph unicode="‰" horiz-adv-x="2195" d="M719 1155Q719 1082 697 1022T632 918T525 850T375 825Q292 825 230 849T127 917T66 1021T45 1155V1329Q45 1393 65 1452T127 1558T232 1633T383 1661Q475 1661 539 1631T643 1554T701 1447T719 1329V1155ZM1229 1618L414 0H229L1044 1618H1229ZM2159 311Q2159 239 2139 179T2076 74T1969 5T1817 -20Q1734 -20 1672 5T1568 74T1506 179T1485 311V483Q1485 546 1505 605T1566 711T1671 786T1823 815Q1913 815 1977 785T2081 708T2140 601T2159 483V311ZM1423 311Q1423 239 1403 179T1340 74T1234 5T1081 -20Q998 -20 936 5T833 74T771 179T750 311V483Q750 546 770 605T831 711T936 786T1087 815Q1178 815 1242 785T1346 708T1405 601T1423 483V311ZM449 1176V1311Q449 1324 445 1337T432 1360T412 1377T383 1384Q346 1384 331 1362T315 1311V1176Q315 1138 330 1115T383 1092Q420 1092 434 1116T449 1176ZM1890 332V465Q1890 493 1874 517T1823 541Q1803 541 1790 535T1769 517T1758 493T1755 465V332Q1755 298 1770 272T1823 246Q1844 246 1857 253T1877 271T1887 298T1890 332ZM1155 332V465Q1155 493 1140 517T1087 541Q1049 541 1035 517T1020 465V332Q1020 298 1034 272T1087 246Q1108 246 1121 253T1141 271T1152 298T1155 332Z"/><glyph unicode="‹" horiz-adv-x="510" d="M481 215L29 580V860L481 1225V858L295 721L481 584V215Z"/><glyph unicode="›" horiz-adv-x="510" d="M29 215V584L217 721L29 858V1225L483 860V580L29 215Z"/><glyph unicode="⁄" horiz-adv-x="262" d="M453 1632Q395 1435 347 1268Q326 1197 306 1126T267 992T235 882T215 811Q209 789 196 743T165 635T128 503T88 362Q41 197 -14 0H-193Q-133 210 -81 388Q-59 464 -37 540T4 682T37 798T59 874Q65 895 77 939T106 1040T141 1163T179 1295Q223 1449 274 1632H453Z"/><glyph unicode="€" horiz-adv-x="1100" d="M506 844V815V791H614V569H508Q508 517 509 477T512 414Q514 360 531 337T586 313Q623 313 640 336T659 414Q660 424 660 443T661 488T662 544T662 606H1067Q1064 534 1056 465T1040 346Q1027 265 994 198T906 83T771 9T586 -18Q478 -18 398 8T263 83T176 198T131 346Q123 388 119 446T109 569H31V791H100V819V844H31V1065H102Q105 1139 110 1200T125 1309Q137 1376 165 1438T245 1548T381 1624T586 1653Q696 1653 777 1625T913 1548T1001 1439T1047 1311Q1058 1252 1063 1175T1071 1010H662Q660 1072 660 1123T659 1200Q657 1256 641 1279T586 1303Q545 1303 529 1277T510 1198Q510 1180 510 1144T508 1065H614V844H506Z"/><glyph unicode="℗" horiz-adv-x="1231" d="M1194 852Q1192 733 1156 639T1048 480T870 379T621 344Q478 344 370 378T189 478T77 637T37 852Q36 877 36 913T35 992T35 1081T37 1171Q40 1288 80 1377T195 1526T375 1616T616 1647Q748 1647 853 1618T1033 1529T1149 1380T1194 1171Q1195 1141 1195 1103T1195 1023T1195 938T1194 852ZM1051 889Q1052 917 1052 956T1052 1035T1052 1112T1051 1169Q1048 1245 1023 1306T945 1410T811 1476T616 1499Q503 1499 421 1476T285 1411T205 1307T178 1171Q177 1139 177 1097T177 1015T177 940T178 889Q181 692 288 589T616 485Q738 485 820 511T953 588T1025 714T1051 889ZM557 791V653H301V1325H657Q738 1325 789 1309T874 1268Q902 1248 920 1222T949 1169T963 1117T967 1071Q967 1053 966 1029T959 978T945 926T920 879Q904 857 882 841T833 813T780 797T727 791H557ZM709 1053Q709 1066 706 1079T695 1104T671 1122T629 1130H557V977H641Q682 977 695 997T709 1053Z"/><glyph unicode="™" horiz-adv-x="1614" d="M1311 1055V1346Q1311 1376 1303 1388T1272 1401Q1225 1401 1225 1319V1055H963V1350Q963 1381 954 1391T924 1401Q898 1401 886 1379T874 1315V1055H612V1634H868V1534Q882 1588 930 1616T1051 1645Q1087 1645 1114 1636T1160 1611T1190 1575T1206 1532Q1217 1564 1236 1586T1280 1621T1335 1639T1401 1645Q1453 1645 1487 1627T1540 1582T1567 1524T1575 1464V1055H1311ZM582 1395H410Q410 1366 410 1347T414 1303Q420 1268 473 1268Q489 1268 505 1268T532 1270V1061Q520 1058 502 1056T462 1053T419 1052T377 1051Q275 1051 216 1098T156 1239V1395H6V1634H582V1395Z"/><glyph unicode="Ω" horiz-adv-x="1664" d="M832 1376Q644 1376 510 1234T376 836Q376 592 464 432T724 180V0H88V196H536Q416 240 304 406T192 848Q192 1112 358 1330T832 1548Q1140 1548 1306 1338T1472 848Q1472 572 1360 406T1128 196H1576V0H940V180Q1112 272 1200 432T1288 836Q1288 1044 1162 1210T832 1376Z"/><glyph unicode="∂" horiz-adv-x="1280" d="M476 -32Q276 -32 166 80T56 360Q56 580 214 750T604 920Q700 920 802 886T964 816Q976 900 976 984Q976 1172 908 1278T720 1384Q592 1384 518 1356T368 1280L324 1444Q400 1488 492 1518T720 1548Q956 1548 1064 1394T1172 968Q1172 552 968 260T476 -32ZM488 128Q660 128 774 268T944 684Q912 716 824 748T648 780Q456 780 360 654T264 372Q264 264 318 196T488 128Z"/><glyph unicode="∆" horiz-adv-x="1536" d="M76 0L652 1536H884L1456 0H76ZM352 148H1164L752 1256L352 148Z"/><glyph unicode="∏" horiz-adv-x="1536" d="M332 0V1348H80V1524H1456V1348H1212V0H1004V1356H540V0H332Z"/><glyph unicode="∑" horiz-adv-x="1152" d="M1084 1524V1344H332L796 784L304 188H1080V0H40V172L560 788L68 1380V1524H1084Z"/><glyph unicode="−" horiz-adv-x="842" d="M817 637H25V963H817V637Z"/><glyph unicode="∕" horiz-adv-x="262" d="M453 1632Q395 1435 347 1268Q326 1197 306 1126T267 992T235 882T215 811Q209 789 196 743T165 635T128 503T88 362Q41 197 -14 0H-193Q-133 210 -81 388Q-59 464 -37 540T4 682T37 798T59 874Q65 895 77 939T106 1040T141 1163T179 1295Q223 1449 274 1632H453Z"/><glyph unicode="∙" horiz-adv-x="492" d="M446 590H45V1044H446V590Z"/><glyph unicode="√" horiz-adv-x="1178" d="M1182 1640L791 -51H219L16 659H391L479 324L754 1640H1182Z"/><glyph unicode="∞" horiz-adv-x="1536" d="M1072 396Q924 396 840 480Q800 524 768 588Q732 536 688 496Q580 396 440 396Q284 396 190 508T96 808Q96 984 208 1100T468 1216T704 1132Q748 1096 780 1028Q816 1088 860 1128Q956 1216 1100 1216Q1248 1216 1346 1112T1444 820Q1444 640 1340 518T1072 396ZM612 984Q556 1048 472 1048Q376 1048 316 982T256 792Q256 668 302 610T448 552Q540 552 608 624Q664 684 700 808Q664 932 612 984ZM920 608Q984 556 1072 556Q1156 556 1218 626T1280 816Q1280 916 1234 988T1080 1060Q972 1060 920 968Q880 896 848 804Q860 652 920 608Z"/><glyph unicode="∫" horiz-adv-x="1152" d="M-8 -392L56 -260Q80 -268 104 -274T164 -280Q212 -280 242 -246T288 -112L516 1224Q544 1384 636 1464T880 1544Q972 1544 1042 1522T1152 1476L1088 1304Q1044 1332 988 1356T868 1380Q776 1380 730 1322T672 1188L448 -224Q428 -332 350 -382T176 -432Q116 -432 66 -420T-8 -392Z"/><glyph unicode="≈" horiz-adv-x="1536" d="M236 400Q228 444 228 480Q228 580 288 652T476 724Q576 724 650 696T788 642T912 598T1020 580Q1096 580 1128 610T1160 684Q1160 700 1156 716H1300Q1308 672 1308 636Q1308 536 1248 464T1060 392Q960 392 886 418T748 470T624 512T516 528Q440 528 408 500T376 432Q376 416 380 400H236ZM236 860Q228 904 228 940Q228 1040 288 1112T476 1184Q576 1184 650 1156T788 1102T912 1058T1020 1040Q1096 1040 1128 1070T1160 1144Q1160 1160 1156 1176H1300Q1308 1132 1308 1096Q1308 996 1248 924T1060 852Q960 852 886 878T748 930T624 972T516 988Q440 988 408 960T376 892Q376 876 380 860H236Z"/><glyph unicode="≠" horiz-adv-x="1536" d="M212 976V1176H900L996 1356H1168L1072 1176H1328V976H964L768 604H1328V404H660L548 188H372L488 404H212V604H592L792 976H212Z"/><glyph unicode="≤" horiz-adv-x="1536" d="M1348 236L208 708V872L1348 1344V1128L448 792L1348 452V236ZM212 24V216H1348V24H212Z"/><glyph unicode="≥" horiz-adv-x="1536" d="M212 236V452L1112 792L212 1128V1344L1352 872V708L212 236ZM212 24V216H1348V24H212Z"/><glyph unicode="◊" horiz-adv-x="1152" d="M472 -48L68 756L472 1560H656L1084 756L656 -48H472ZM556 152L876 768L572 1356L252 740L556 152Z"/><glyph unicode="" horiz-adv-x="776" d="M352 1055V1309H10V1628H766V1309H416V1055Q458 1049 495 1028T559 977T602 907T618 823Q618 779 602 741T559 671T494 620T414 594V371H766V10H10V371H350V594Q308 601 272 621T209 671T167 740T152 823Q152 867 167 906T210 976T273 1028T352 1055ZM227 743Q247 748 272 755T317 768Q305 751 290 733T262 698Q281 680 303 668T352 651V748L383 815L414 748V651Q438 656 461 667T504 694Q491 711 475 731T444 770Q467 762 494 755T541 743Q561 779 561 823Q561 872 537 911Q518 906 492 900T444 887Q457 904 472 922T500 956Q483 972 461 982T416 997V901L383 831L354 901V997Q305 988 266 952Q277 937 293 919T322 883Q302 889 276 895T229 907Q220 887 215 867T209 823Q209 780 227 743Z"/><glyph unicode="ﬀ" horiz-adv-x="1135" d="M479 801V0H100V801H8V1126H100V1317Q100 1384 117 1443T173 1547T278 1616T438 1642Q469 1642 492 1642T534 1641T566 1640T594 1638V1341Q592 1342 585 1342T568 1344T550 1345T539 1346Q520 1346 508 1339T489 1320T480 1294T477 1266V1124H635V1313Q635 1380 652 1440T708 1545T812 1616T971 1642Q1002 1642 1024 1642T1064 1641T1094 1640T1122 1638V1341Q1111 1343 1097 1344T1065 1346Q1036 1346 1024 1329T1012 1284V1124H1124V801H1012V0H635V801H479Z"/><glyph unicode="ﬁ" horiz-adv-x="1092" d="M649 807H489V0H111V801H8V1126H111V1317Q111 1384 131 1443T195 1547T309 1616T481 1642Q512 1642 534 1642T574 1641T605 1640T633 1638V1343Q622 1343 607 1344T575 1346Q533 1346 510 1320T487 1243V1124H1038V76Q1038 45 1045 24T1055 0H670Q649 11 649 78V807Z"/><glyph unicode="ﬂ" horiz-adv-x="1077" d="M8 801V1126H100V1317Q100 1384 117 1443T173 1547T278 1616T438 1642Q469 1642 492 1642T534 1641T566 1640T592 1638V1343Q583 1345 566 1345T532 1346Q503 1346 491 1329T479 1286V1124H588V801H479V0H100V801H8ZM1036 0Q930 -1 846 -1Q810 -1 776 -1T716 -1T673 0H657Q653 2 650 11T645 32T641 59T639 88V1536Q639 1564 639 1593T637 1634H1016Q1016 1631 1018 1613T1020 1565V78Q1020 10 1036 0Z"/><glyph unicode="ﬃ" horiz-adv-x="1614" d="M1169 807H1012V0H635V807H479V0H100V801H8V1126H100V1317Q100 1384 117 1443T173 1547T278 1616T438 1642Q469 1642 492 1642T534 1641T566 1640T594 1638V1341Q592 1342 585 1342T568 1344T550 1345T539 1346Q520 1346 508 1339T489 1320T480 1294T477 1266V1124H635V1313Q635 1380 652 1440T708 1545T812 1616T971 1642Q1002 1642 1024 1642T1064 1641T1094 1640T1122 1638V1341Q1111 1343 1097 1344T1065 1346Q1036 1346 1024 1329T1012 1284V1124H1561V76Q1561 45 1567 24T1577 0H1194Q1180 3 1175 23T1169 78V807Z"/><glyph unicode="ﬄ" horiz-adv-x="1610" d="M479 801V0H100V801H8V1126H100V1317Q100 1384 117 1443T173 1547T278 1616T438 1642Q469 1642 492 1642T534 1641T566 1640T594 1638V1341Q592 1342 585 1342T568 1344T550 1345T539 1346Q520 1346 508 1339T489 1320T480 1294T477 1266V1124H635V1313Q635 1380 652 1440T708 1545T812 1616T971 1642Q1002 1642 1025 1642T1066 1641T1097 1640T1124 1638V1341Q1113 1343 1098 1344T1065 1346Q1036 1346 1024 1329T1012 1284V1124H1120V801H1012V0H635V801H479ZM1569 0Q1463 -1 1379 -1Q1343 -1 1309 -1T1249 -1T1206 -1T1190 0Q1181 5 1176 32T1171 88V1536Q1171 1564 1171 1593T1169 1634H1548Q1548 1631 1550 1613T1552 1565V78Q1552 8 1569 0Z"/></font>
</defs>
</svg>
