<?xml version="1.0" standalone="no"?>
<!DOCTYPE svg PUBLIC "-//W3C//DTD SVG 1.1//EN" "http://www.w3.org/Graphics/SVG/1.1/DTD/svg11.dtd" >
<svg xmlns="http://www.w3.org/2000/svg">
<metadata>
This is a custom SVG font generated by IcoMoon.
<iconset grid="16"></iconset>
</metadata>
<defs>
<font id="beast-awards-icon-font" horiz-adv-x="512" >
<font-face units-per-em="512" ascent="480" descent="-32" />
<missing-glyph horiz-adv-x="512" />
<glyph class="hidden" unicode="&#xf000;" d="M0,480L 512 -32L0 -32 z" horiz-adv-x="0" />
<glyph unicode="&#xe000;" d="M 255.655,301.498l 114.304,114.58l 77.271-78.204L 332.902,224.838l 115.1-116.148l-78.043-76.662L 255.655,147.406
	L 141.352,32.028l-77.27,77.459L 179.18,224.838L 64.876,337.873l 76.475,78.205L 255.655,301.498z" data-tags="close-x" />
<glyph unicode="&#xe001;" d="M 512,96L 256,352L0,96L 512,96 z" data-tags="caret-up" />
<glyph unicode="&#xe002;" d="M 128.001-32l 256,256l-256,256L 128.001-32 z" data-tags="caret-right" />
<glyph unicode="&#xe003;" d="M 384,480L 128,224l 256-256L 384,480 z" data-tags="caret-left" />
<glyph unicode="&#xe004;" d="M 0.119,352.5l 255.696-255.695L 511.51,352.5L 0.119,352.5 z" data-tags="caret-down" />
<glyph unicode="&#xe005;" d="M 370.735,373.467l-12.411-12.483l-60.52-60.863l-63.333-63.694l 1.794-1.804l 92.14,0 c 0.35-3.504, 0.531-7.058, 0.531-10.654
	c0-58.486-47.41-105.897-105.895-105.897S 117.148,165.483, 117.148,223.97c0,58.483, 47.409,105.893, 105.894,105.893
	c 11.857,0, 23.257-1.955, 33.902-5.552l 64.505,64.507c-28.774,17.221-62.436,27.12-98.407,27.12
	c-106.021,0-191.969-85.946-191.969-191.968S 117.021,32, 223.041,32s 191.968,85.946, 191.968,191.969
	c0,3.577-0.106,7.128-0.298,10.655l 0.521,0 l 89.976,0 L 507,236.43L 370.735,373.467z" data-tags="replay" />
<glyph unicode="&#xe006;" d="M 256,416C 149.968,416, 64,330.032, 64,224s 85.968-192, 192-192s 192,85.968, 192,192S 362.032,416, 256,416z M 350.968,162.968
	l-33.936-33.936L 256,190.064l-61.032-61.032l-33.936,33.936L 222.064,224l-61.032,61.032l 33.936,33.936L 256,257.936l 61.032,61.032
	l 33.936-33.936L 289.936,224L 350.968,162.968z" data-tags="close-x-circle-filled" />
<glyph unicode="&#xe007;" d="M 340.853,274.911L 306.911,308.852L 256,257.941L 205.089,308.852L 171.147,274.911L 222.059,224L 171.147,173.089L 205.089,139.148L 256,190.059L 306.911,139.148L 340.853,173.089L 289.941,224 	zM 391.764,359.764c-74.976,74.975-196.551,74.975-271.527,0c-74.976-74.976-74.976-196.552,0-271.527
		c 74.976-74.978, 196.551-74.978, 271.527,0C 466.74,163.212, 466.739,284.788, 391.764,359.764z M 153.912,121.382
		c-56.528,56.528-56.528,148.178,0,204.706c 56.528,56.528, 148.179,56.528, 204.706,0c 56.528-56.528, 56.528-148.178,0-204.706
		C 302.091,64.854, 210.44,64.854, 153.912,121.382z" data-tags="close-x-circle" />
<glyph unicode="&#xe008;" d="M 206.761,145.196c 4.669,0, 14.015,0, 14.015,0c0,88.444, 92.97,88.929, 92.97,88.929l-13.536-63.939l 123.799,90.857
		l-123.799,89.424l 12.595-56.732C 207.226,293.736, 206.761,145.196, 206.761,145.196zM 391.646,166.498l0-66.507 l-259.75,0 L 131.896,280.603 l 79.277,0 l0,36.834 l-91.24,0 c-12.969,0-23.933-10.741-23.933-24.558l0-205.681 
		c0-13.308, 10.963-24.053, 23.933-24.053l 284.179,0 c 12.966,0, 23.438,10.745, 23.438,24.053l0,79.3 L 391.646,166.498 z" data-tags="share" />
<glyph unicode="&#xe009;" d="M 103.146,177.183c-27.209,27.199-40.495,63.264-40.495,99.969c0,75.922, 64.552,140.463, 140.475,140.463
	c 76.559,0, 141.092-63.276, 141.092-139.835c0-32.905-18.214-69.728-18.214-69.728L 439.77,93.66
	c 5.045-6.333, 7.579-14.553, 7.579-22.78c0-20.248-17.075-38.598-37.961-38.598c-8.22,0-15.819,2.532-22.781,7.599L 272.772,153.704
	c0,0-36.753-18.284-69.646-18.284C 167.060,135.42, 130.994,149.334, 103.146,177.183z M 264.506,215.143
	c 17.075,17.086, 25.293,39.228, 25.293,62.009c0,46.189-39.217,86.045-86.673,86.045c-46.2,0-86.056-39.227-86.056-86.045
	c0-48.096, 39.238-87.324, 86.056-87.324C 225.268,189.828, 247.41,198.686, 264.506,215.143z" data-tags="search" />
<glyph unicode="&#xe00a;" d="M 253.897,352.505l0-80.842 l 162.151-44.86l0-5.607 L 253.897,175.87l0-80.376 L 95.952,224L 253.897,352.505z" data-tags="arrow-west" />
<glyph unicode="&#xe00b;" d="M 127.495,221.896l 80.842,0 l 44.86,162.151l 5.608,0 l 45.325-162.151l 80.376,0 L 256,63.951L 127.495,221.896z" data-tags="arrow-south" />
<glyph unicode="&#xe00c;" d="M 384.506,226.103l-80.843,0 l-44.859-162.151l-5.608,0 l-45.325,162.151l-80.376,0 L 256,384.048L 384.506,226.103z" data-tags="arrow-north" />
<glyph unicode="&#xe00d;" d="M 258.104,95.494l0,80.842 L 95.952,221.197l0,5.607 l 162.151,45.325l0,80.376 L 416.049,224L 258.104,95.494z" data-tags="arrow-east" />
<glyph unicode="&#xe00e;" d="M 256,480c-141.385,0-256-114.615-256-256s 114.615-256, 256-256s 256,114.615, 256,256S 397.385,480, 256,480z
	 M 316.569,224.019l-43.704-0.019l-0.041-160l-59.959,0 l0,160 l-40,0 l0,55.141 l 40,0.018l-0.065,32.485c0,44.985, 12.198,72.356, 65.188,72.356
	l 44.117,0 l0-55.151 l-27.572,0 c-20.635,0-21.627-7.705-21.627-22.089l-0.082-27.601l 49.591,0 L 316.569,224.019z" data-tags="facebook" />
<glyph unicode="&#xe00f;" d="M 256,480c-141.385,0-256-114.615-256-256s 114.615-256, 256-256s 256,114.615, 256,256S 397.385,480, 256,480z M 256,150.5
	l 18.375,0 l 27.562,0 L 329.5,150.5 c 20.295,0, 36.75-16.455, 36.75-36.75S 349.795,77, 329.5,77l-27.562,0 l-27.562,0 L 256,77 
	c-60.886,0-110.25,49.364-110.25,110.25L 145.75,297.5 l0,18.375 L 145.75,334.25 c0,20.295, 16.455,36.75, 36.75,36.75s 36.75-16.455, 36.75-36.75l0-18.375 L 219.25,297.5 
	L 329.5,297.5 c 20.295,0, 36.75-16.455, 36.75-36.75S 349.795,224, 329.5,224L 219.25,224 l0-36.75 C 219.25,166.955, 235.705,150.5, 256,150.5z" data-tags="twitter" />
<glyph unicode="&#xe010;" d="M 449.663,314.707l-60.99,0 L 319.379,384L 212.505,384 l-69.294-69.293l-19.693,0 l0,0.42 L 60.043,315.127 l0-0.555 
	c-10.536-1.218-18.737-10.721-18.737-22.268l0-238.031 c0-12.372, 9.416-22.403, 21.031-22.403l 387.327,0 
	c 11.617,0, 21.032,10.031, 21.032,22.403L 470.696,292.305 C 470.695,304.677, 461.28,314.707, 449.663,314.707z M 256.001,93.768
	c-53.317,0-96.538,43.221-96.538,96.537s 43.221,96.537, 96.538,96.537c 53.317,0, 96.536-43.221, 96.536-96.537
	S 309.318,93.768, 256.001,93.768z" data-tags="still_camera" />
<glyph unicode="&#xe011;" d="M 456.826,378.337L 55.173,378.337L 256,240.944 	zM 256,205.5L 31.495,351.5L 31.495,70.085L 480.505,69.5L 480.505,352 	z" data-tags="email" />
<glyph unicode="&#xe012;" d="M 512,480 L 512,272 L 432,352 L 336,256 L 288,304 L 384,400 L 304,480 ZM 224,144 L 128,48 L 208-32 L 0-32 L 0,176 L 80,96 L 176,192 Z" data-tags="expand, enlarge, maximize, fullscreen" />
<glyph unicode="&#xe013;" d="M 224,192 L 224-16 L 144,64 L 48-32 L 0,16 L 96,112 L 16,192 ZM 512,432 L 416,336 L 496,256 L 288,256 L 288,464 L 368,384 L 464,480 Z" data-tags="contract, minimize, shrink, collapse" />
<glyph unicode="&#x20;" horiz-adv-x="256" />
</font>
</defs>
</svg>
